ISO-10303-21;
HEADER;
FILE_DESCRIPTION(('Open CASCADE Model'),'2;1');
FILE_NAME('Open CASCADE Shape Model','2026-10-06T04:25:35',('Author'),(
    'Open CASCADE'),'Open CASCADE STEP processor 7.9','Open CASCADE 7.9'
  ,'Unknown');
FILE_SCHEMA(('AUTOMOTIVE_DESIGN { 1 0 10303 214 1 1 1 1 }'));
ENDSEC;
DATA;
#1 = APPLICATION_PROTOCOL_DEFINITION('international standard',
  'automotive_design',2000,#2);
#2 = APPLICATION_CONTEXT(
  'core data for automotive mechanical design processes');
#3 = SHAPE_DEFINITION_REPRESENTATION(#4,#10);
#4 = PRODUCT_DEFINITION_SHAPE('','',#5);
#5 = PRODUCT_DEFINITION('design','',#6,#9);
#6 = PRODUCT_DEFINITION_FORMATION('','',#7);
#7 = PRODUCT('Open CASCADE STEP translator 7.9 12',
  'Open CASCADE STEP translator 7.9 12','',(#8));
#8 = PRODUCT_CONTEXT('',#2,'mechanical');
#9 = PRODUCT_DEFINITION_CONTEXT('part definition',#2,'design');
#10 = ADVANCED_BREP_SHAPE_REPRESENTATION('',(#11,#15),#1685);
#11 = AXIS2_PLACEMENT_3D('',#12,#13,#14);
#12 = CARTESIAN_POINT('',(0.,0.,0.));
#13 = DIRECTION('',(0.,0.,1.));
#14 = DIRECTION('',(1.,0.,-0.));
#15 = MANIFOLD_SOLID_BREP('',#16);
#16 = CLOSED_SHELL('',(#17,#143,#259,#380,#451,#632,#760,#786,#909,#1166
    ,#1192,#1269,#1296,#1323,#1350,#1395,#1442,#1449,#1504,#1559,#1614,
    #1669,#1673,#1677,#1681));
#17 = ADVANCED_FACE('',(#18),#33,.T.);
#18 = FACE_BOUND('',#19,.T.);
#19 = EDGE_LOOP('',(#20,#54,#82,#111));
#20 = ORIENTED_EDGE('',*,*,#21,.F.);
#21 = EDGE_CURVE('',#22,#24,#26,.T.);
#22 = VERTEX_POINT('',#23);
#23 = CARTESIAN_POINT('',(-7.,-7.,121.5));
#24 = VERTEX_POINT('',#25);
#25 = CARTESIAN_POINT('',(-9.12132034356,-7.,120.62132034356));
#26 = SURFACE_CURVE('',#27,(#32,#43),.PCURVE_S1.);
#27 = CIRCLE('',#28,3.);
#28 = AXIS2_PLACEMENT_3D('',#29,#30,#31);
#29 = CARTESIAN_POINT('',(-7.,-7.,118.5));
#30 = DIRECTION('',(0.,-1.,0.));
#31 = DIRECTION('',(-1.,0.,0.));
#32 = PCURVE('',#33,#38);
#33 = CYLINDRICAL_SURFACE('',#34,3.);
#34 = AXIS2_PLACEMENT_3D('',#35,#36,#37);
#35 = CARTESIAN_POINT('',(-7.,-10.,118.5));
#36 = DIRECTION('',(0.,1.,0.));
#37 = DIRECTION('',(-1.,0.,0.));
#38 = DEFINITIONAL_REPRESENTATION('',(#39),#42);
#39 = B_SPLINE_CURVE_WITH_KNOTS('',1,(#40,#41),.UNSPECIFIED.,.F.,.F.,(2,
    2),(4.712388980385,6.28318530718),.PIECEWISE_BEZIER_KNOTS.);
#40 = CARTESIAN_POINT('',(1.570796326795,3.));
#41 = CARTESIAN_POINT('',(0.,3.));
#42 = ( GEOMETRIC_REPRESENTATION_CONTEXT(2) 
PARAMETRIC_REPRESENTATION_CONTEXT() REPRESENTATION_CONTEXT('2D SPACE',''
  ) );
#43 = PCURVE('',#44,#49);
#44 = SPHERICAL_SURFACE('',#45,3.);
#45 = AXIS2_PLACEMENT_3D('',#46,#47,#48);
#46 = CARTESIAN_POINT('',(-7.,-7.,118.5));
#47 = DIRECTION('',(-0.,-0.,-1.));
#48 = DIRECTION('',(-1.,0.,0.));
#49 = DEFINITIONAL_REPRESENTATION('',(#50),#53);
#50 = B_SPLINE_CURVE_WITH_KNOTS('',1,(#51,#52),.UNSPECIFIED.,.F.,.F.,(2,
    2),(4.712388980385,6.28318530718),.PIECEWISE_BEZIER_KNOTS.);
#51 = CARTESIAN_POINT('',(0.,-1.570796326795));
#52 = CARTESIAN_POINT('',(0.,0.));
#53 = ( GEOMETRIC_REPRESENTATION_CONTEXT(2) 
PARAMETRIC_REPRESENTATION_CONTEXT() REPRESENTATION_CONTEXT('2D SPACE',''
  ) );
#54 = ORIENTED_EDGE('',*,*,#55,.T.);
#55 = EDGE_CURVE('',#22,#56,#58,.T.);
#56 = VERTEX_POINT('',#57);
#57 = CARTESIAN_POINT('',(-7.,87.,121.5));
#58 = SURFACE_CURVE('',#59,(#63,#70),.PCURVE_S1.);
#59 = LINE('',#60,#61);
#60 = CARTESIAN_POINT('',(-7.,-10.,121.5));
#61 = VECTOR('',#62,1.);
#62 = DIRECTION('',(0.,1.,0.));
#63 = PCURVE('',#33,#64);
#64 = DEFINITIONAL_REPRESENTATION('',(#65),#69);
#65 = LINE('',#66,#67);
#66 = CARTESIAN_POINT('',(1.570796326795,0.));
#67 = VECTOR('',#68,1.);
#68 = DIRECTION('',(0.,1.));
#69 = ( GEOMETRIC_REPRESENTATION_CONTEXT(2) 
PARAMETRIC_REPRESENTATION_CONTEXT() REPRESENTATION_CONTEXT('2D SPACE',''
  ) );
#70 = PCURVE('',#71,#76);
#71 = PLANE('',#72);
#72 = AXIS2_PLACEMENT_3D('',#73,#74,#75);
#73 = CARTESIAN_POINT('',(-10.,-10.,121.5));
#74 = DIRECTION('',(0.,0.,1.));
#75 = DIRECTION('',(1.,0.,0.));
#76 = DEFINITIONAL_REPRESENTATION('',(#77),#81);
#77 = LINE('',#78,#79);
#78 = CARTESIAN_POINT('',(3.,0.));
#79 = VECTOR('',#80,1.);
#80 = DIRECTION('',(0.,1.));
#81 = ( GEOMETRIC_REPRESENTATION_CONTEXT(2) 
PARAMETRIC_REPRESENTATION_CONTEXT() REPRESENTATION_CONTEXT('2D SPACE',''
  ) );
#82 = ORIENTED_EDGE('',*,*,#83,.F.);
#83 = EDGE_CURVE('',#84,#56,#86,.T.);
#84 = VERTEX_POINT('',#85);
#85 = CARTESIAN_POINT('',(-9.12132034356,87.,120.62132034356));
#86 = SURFACE_CURVE('',#87,(#92,#99),.PCURVE_S1.);
#87 = CIRCLE('',#88,3.);
#88 = AXIS2_PLACEMENT_3D('',#89,#90,#91);
#89 = CARTESIAN_POINT('',(-7.,87.,118.5));
#90 = DIRECTION('',(0.,1.,0.));
#91 = DIRECTION('',(-1.,0.,0.));
#92 = PCURVE('',#33,#93);
#93 = DEFINITIONAL_REPRESENTATION('',(#94),#98);
#94 = LINE('',#95,#96);
#95 = CARTESIAN_POINT('',(0.,97.));
#96 = VECTOR('',#97,1.);
#97 = DIRECTION('',(1.,0.));
#98 = ( GEOMETRIC_REPRESENTATION_CONTEXT(2) 
PARAMETRIC_REPRESENTATION_CONTEXT() REPRESENTATION_CONTEXT('2D SPACE',''
  ) );
#99 = PCURVE('',#100,#105);
#100 = SPHERICAL_SURFACE('',#101,3.);
#101 = AXIS2_PLACEMENT_3D('',#102,#103,#104);
#102 = CARTESIAN_POINT('',(-7.,87.,118.5));
#103 = DIRECTION('',(-0.,-1.,-0.));
#104 = DIRECTION('',(-1.,0.,0.));
#105 = DEFINITIONAL_REPRESENTATION('',(#106),#110);
#106 = LINE('',#107,#108);
#107 = CARTESIAN_POINT('',(-0.,0.));
#108 = VECTOR('',#109,1.);
#109 = DIRECTION('',(-1.,0.));
#110 = ( GEOMETRIC_REPRESENTATION_CONTEXT(2) 
PARAMETRIC_REPRESENTATION_CONTEXT() REPRESENTATION_CONTEXT('2D SPACE',''
  ) );
#111 = ORIENTED_EDGE('',*,*,#112,.F.);
#112 = EDGE_CURVE('',#24,#84,#113,.T.);
#113 = SURFACE_CURVE('',#114,(#120,#129),.PCURVE_S1.);
#114 = B_SPLINE_CURVE_WITH_KNOTS('',4,(#115,#116,#117,#118,#119),
  .UNSPECIFIED.,.F.,.F.,(5,5),(0.,1.),.PIECEWISE_BEZIER_KNOTS.);
#115 = CARTESIAN_POINT('',(-9.12132034356,-7.0000006,120.62132034356));
#116 = CARTESIAN_POINT('',(-9.12132034356,16.4999997,120.62132034356));
#117 = CARTESIAN_POINT('',(-9.12132034356,40.,120.62132034356));
#118 = CARTESIAN_POINT('',(-9.12132034356,63.5000003,120.62132034356));
#119 = CARTESIAN_POINT('',(-9.12132034356,87.0000006,120.62132034356));
#120 = PCURVE('',#33,#121);
#121 = DEFINITIONAL_REPRESENTATION('',(#122),#128);
#122 = B_SPLINE_CURVE_WITH_KNOTS('',4,(#123,#124,#125,#126,#127),
  .UNSPECIFIED.,.F.,.F.,(5,5),(0.,1.),.PIECEWISE_BEZIER_KNOTS.);
#123 = CARTESIAN_POINT('',(0.785398163397,2.9999994));
#124 = CARTESIAN_POINT('',(0.785398163397,26.4999997));
#125 = CARTESIAN_POINT('',(0.785398163397,50.));
#126 = CARTESIAN_POINT('',(0.785398163397,73.5000003));
#127 = CARTESIAN_POINT('',(0.785398163397,97.0000006));
#128 = ( GEOMETRIC_REPRESENTATION_CONTEXT(2) 
PARAMETRIC_REPRESENTATION_CONTEXT() REPRESENTATION_CONTEXT('2D SPACE',''
  ) );
#129 = PCURVE('',#130,#135);
#130 = B_SPLINE_SURFACE_WITH_KNOTS('',1,1,(
    (#131,#132)
    ,(#133,#134
    )),.UNSPECIFIED.,.F.,.F.,.F.,(2,2),(2,2),(0.,104.),(0.,1.),
  .PIECEWISE_BEZIER_KNOTS.);
#131 = CARTESIAN_POINT('',(30.,50.,81.5));
#132 = CARTESIAN_POINT('',(-12.,92.,123.5));
#133 = CARTESIAN_POINT('',(30.,30.,81.5));
#134 = CARTESIAN_POINT('',(-12.,-12.,123.5));
#135 = DEFINITIONAL_REPRESENTATION('',(#136),#142);
#136 = B_SPLINE_CURVE_WITH_KNOTS('',4,(#137,#138,#139,#140,#141),
  .UNSPECIFIED.,.F.,.F.,(5,5),(0.,1.),.PIECEWISE_BEZIER_KNOTS.);
#137 = CARTESIAN_POINT('',(101.75436356568,0.93146000818));
#138 = CARTESIAN_POINT('',(76.877181782843,0.93146000818));
#139 = CARTESIAN_POINT('',(52.,0.93146000818));
#140 = CARTESIAN_POINT('',(27.122818217157,0.93146000818));
#141 = CARTESIAN_POINT('',(2.245636434314,0.93146000818));
#142 = ( GEOMETRIC_REPRESENTATION_CONTEXT(2) 
PARAMETRIC_REPRESENTATION_CONTEXT() REPRESENTATION_CONTEXT('2D SPACE',''
  ) );
#143 = ADVANCED_FACE('',(#144),#44,.T.);
#144 = FACE_BOUND('',#145,.F.);
#145 = EDGE_LOOP('',(#146,#147,#174,#220));
#146 = ORIENTED_EDGE('',*,*,#21,.F.);
#147 = ORIENTED_EDGE('',*,*,#148,.T.);
#148 = EDGE_CURVE('',#22,#149,#151,.T.);
#149 = VERTEX_POINT('',#150);
#150 = CARTESIAN_POINT('',(-7.,-9.12132034356,120.62132034356));
#151 = SURFACE_CURVE('',#152,(#157,#163),.PCURVE_S1.);
#152 = CIRCLE('',#153,3.);
#153 = AXIS2_PLACEMENT_3D('',#154,#155,#156);
#154 = CARTESIAN_POINT('',(-7.,-7.,118.5));
#155 = DIRECTION('',(1.,-6.123233995737E-17,0.));
#156 = DIRECTION('',(-6.123233995737E-17,-1.,0.));
#157 = PCURVE('',#44,#158);
#158 = DEFINITIONAL_REPRESENTATION('',(#159),#162);
#159 = B_SPLINE_CURVE_WITH_KNOTS('',1,(#160,#161),.UNSPECIFIED.,.F.,.F.,
  (2,2),(4.712388980385,6.28318530718),.PIECEWISE_BEZIER_KNOTS.);
#160 = CARTESIAN_POINT('',(-1.570796326795,-1.570796326795));
#161 = CARTESIAN_POINT('',(-1.570796326795,0.));
#162 = ( GEOMETRIC_REPRESENTATION_CONTEXT(2) 
PARAMETRIC_REPRESENTATION_CONTEXT() REPRESENTATION_CONTEXT('2D SPACE',''
  ) );
#163 = PCURVE('',#164,#169);
#164 = CYLINDRICAL_SURFACE('',#165,3.);
#165 = AXIS2_PLACEMENT_3D('',#166,#167,#168);
#166 = CARTESIAN_POINT('',(-10.,-7.,118.5));
#167 = DIRECTION('',(1.,0.,0.));
#168 = DIRECTION('',(0.,-1.,0.));
#169 = DEFINITIONAL_REPRESENTATION('',(#170),#173);
#170 = B_SPLINE_CURVE_WITH_KNOTS('',1,(#171,#172),.UNSPECIFIED.,.F.,.F.,
  (2,2),(4.712388980385,6.28318530718),.PIECEWISE_BEZIER_KNOTS.);
#171 = CARTESIAN_POINT('',(-1.570796326795,3.));
#172 = CARTESIAN_POINT('',(0.,3.));
#173 = ( GEOMETRIC_REPRESENTATION_CONTEXT(2) 
PARAMETRIC_REPRESENTATION_CONTEXT() REPRESENTATION_CONTEXT('2D SPACE',''
  ) );
#174 = ORIENTED_EDGE('',*,*,#175,.F.);
#175 = EDGE_CURVE('',#176,#149,#178,.T.);
#176 = VERTEX_POINT('',#177);
#177 = CARTESIAN_POINT('',(-8.732050807569,-8.732050807569,
    120.23205080756));
#178 = SURFACE_CURVE('',#179,(#189,#202),.PCURVE_S1.);
#179 = B_SPLINE_CURVE_WITH_KNOTS('',8,(#180,#181,#182,#183,#184,#185,
    #186,#187,#188),.UNSPECIFIED.,.F.,.F.,(9,9),(0.,1.),
  .PIECEWISE_BEZIER_KNOTS.);
#180 = CARTESIAN_POINT('',(-8.732050807569,-8.732050807569,
    120.23205080756));
#181 = CARTESIAN_POINT('',(-8.548979902004,-8.823586260352,
    120.32358626035));
#182 = CARTESIAN_POINT('',(-8.355134504711,-8.903923217432,
    120.40392321743));
#183 = CARTESIAN_POINT('',(-8.151161687191,-8.972828854907,
    120.4728288549));
#184 = CARTESIAN_POINT('',(-7.937660951507,-9.029793597817,
    120.52979359781));
#185 = CARTESIAN_POINT('',(-7.715265884299,-9.074143217021,
    120.57414321702));
#186 = CARTESIAN_POINT('',(-7.484569701737,-9.105009864586,
    120.60500986458));
#187 = CARTESIAN_POINT('',(-7.24607009897,-9.12132034356,120.62132034356
    ));
#188 = CARTESIAN_POINT('',(-7.,-9.12132034356,120.62132034356));
#189 = PCURVE('',#44,#190);
#190 = DEFINITIONAL_REPRESENTATION('',(#191),#201);
#191 = B_SPLINE_CURVE_WITH_KNOTS('',8,(#192,#193,#194,#195,#196,#197,
    #198,#199,#200),.UNSPECIFIED.,.F.,.F.,(9,9),(0.,1.),
  .PIECEWISE_BEZIER_KNOTS.);
#192 = CARTESIAN_POINT('',(-0.785398163397,-0.61547970867));
#193 = CARTESIAN_POINT('',(-0.864670190854,-0.652848900786));
#194 = CARTESIAN_POINT('',(-0.948607361246,-0.686774766623));
#195 = CARTESIAN_POINT('',(-1.037944306635,-0.71687841425));
#196 = CARTESIAN_POINT('',(-1.133239418841,-0.742582749151));
#197 = CARTESIAN_POINT('',(-1.234801914278,-0.763158615737));
#198 = CARTESIAN_POINT('',(-1.342368806936,-0.77770935652));
#199 = CARTESIAN_POINT('',(-1.454797769709,-0.785398163397));
#200 = CARTESIAN_POINT('',(-1.570796326795,-0.785398163397));
#201 = ( GEOMETRIC_REPRESENTATION_CONTEXT(2) 
PARAMETRIC_REPRESENTATION_CONTEXT() REPRESENTATION_CONTEXT('2D SPACE',''
  ) );
#202 = PCURVE('',#203,#208);
#203 = B_SPLINE_SURFACE_WITH_KNOTS('',1,1,(
    (#204,#205)
    ,(#206,#207
    )),.UNSPECIFIED.,.F.,.F.,.F.,(2,2),(2,2),(0.,258.),(0.,1.),
  .PIECEWISE_BEZIER_KNOTS.);
#204 = CARTESIAN_POINT('',(30.,30.,81.5));
#205 = CARTESIAN_POINT('',(-12.,-12.,123.5));
#206 = CARTESIAN_POINT('',(204.,30.,81.5));
#207 = CARTESIAN_POINT('',(246.,-12.,123.5));
#208 = DEFINITIONAL_REPRESENTATION('',(#209),#219);
#209 = B_SPLINE_CURVE_WITH_KNOTS('',8,(#210,#211,#212,#213,#214,#215,
    #216,#217,#218),.UNSPECIFIED.,.F.,.F.,(9,9),(0.,1.),
  .PIECEWISE_BEZIER_KNOTS.);
#210 = CARTESIAN_POINT('',(0.,0.922191685894));
#211 = CARTESIAN_POINT('',(0.281743755863,0.924371101437));
#212 = CARTESIAN_POINT('',(0.562583654879,0.926283886129));
#213 = CARTESIAN_POINT('',(0.841719921647,0.927924496545));
#214 = CARTESIAN_POINT('',(1.118123902857,0.929280799948));
#215 = CARTESIAN_POINT('',(1.390574704001,0.930336743262));
#216 = CARTESIAN_POINT('',(1.657706800268,0.931071663443));
#217 = CARTESIAN_POINT('',(1.918052244403,0.93146000818));
#218 = CARTESIAN_POINT('',(2.169738816354,0.93146000818));
#219 = ( GEOMETRIC_REPRESENTATION_CONTEXT(2) 
PARAMETRIC_REPRESENTATION_CONTEXT() REPRESENTATION_CONTEXT('2D SPACE',''
  ) );
#220 = ORIENTED_EDGE('',*,*,#221,.F.);
#221 = EDGE_CURVE('',#24,#176,#222,.T.);
#222 = SURFACE_CURVE('',#223,(#233,#246),.PCURVE_S1.);
#223 = B_SPLINE_CURVE_WITH_KNOTS('',8,(#224,#225,#226,#227,#228,#229,
    #230,#231,#232),.UNSPECIFIED.,.F.,.F.,(9,9),(0.,1.),
  .PIECEWISE_BEZIER_KNOTS.);
#224 = CARTESIAN_POINT('',(-9.12132034356,-7.,120.62132034356));
#225 = CARTESIAN_POINT('',(-9.12132034356,-7.24669403415,120.62132034356
    ));
#226 = CARTESIAN_POINT('',(-9.104927010251,-7.485725818031,
    120.60492701025));
#227 = CARTESIAN_POINT('',(-9.073920639169,-7.71679852259,
    120.57392063916));
#228 = CARTESIAN_POINT('',(-9.029414790856,-7.939366093336,
    120.52941479085));
#229 = CARTESIAN_POINT('',(-8.97232903516,-8.15280515714,120.47232903516
    ));
#230 = CARTESIAN_POINT('',(-8.903397142616,-8.356467700794,
    120.40339714261));
#231 = CARTESIAN_POINT('',(-8.823197536756,-8.549757349195,
    120.32319753675));
#232 = CARTESIAN_POINT('',(-8.732050807569,-8.732050807569,
    120.23205080756));
#233 = PCURVE('',#44,#234);
#234 = DEFINITIONAL_REPRESENTATION('',(#235),#245);
#235 = B_SPLINE_CURVE_WITH_KNOTS('',8,(#236,#237,#238,#239,#240,#241,
    #242,#243,#244),.UNSPECIFIED.,.F.,.F.,(9,9),(0.,1.),
  .PIECEWISE_BEZIER_KNOTS.);
#236 = CARTESIAN_POINT('',(0.,-0.785398163397));
#237 = CARTESIAN_POINT('',(-0.11629268295,-0.785398163397));
#238 = CARTESIAN_POINT('',(-0.228972618541,-0.777670296942));
#239 = CARTESIAN_POINT('',(-0.336707628431,-0.763053686294));
#240 = CARTESIAN_POINT('',(-0.438329681716,-0.742407582546));
#241 = CARTESIAN_POINT('',(-0.533576120156,-0.716656073213));
#242 = CARTESIAN_POINT('',(-0.622766365586,-0.686550415682));
#243 = CARTESIAN_POINT('',(-0.70646278045,-0.652690205042));
#244 = CARTESIAN_POINT('',(-0.785398163397,-0.61547970867));
#245 = ( GEOMETRIC_REPRESENTATION_CONTEXT(2) 
PARAMETRIC_REPRESENTATION_CONTEXT() REPRESENTATION_CONTEXT('2D SPACE',''
  ) );
#246 = PCURVE('',#130,#247);
#247 = DEFINITIONAL_REPRESENTATION('',(#248),#258);
#248 = B_SPLINE_CURVE_WITH_KNOTS('',8,(#249,#250,#251,#252,#253,#254,
    #255,#256,#257),.UNSPECIFIED.,.F.,.F.,(9,9),(0.,1.),
  .PIECEWISE_BEZIER_KNOTS.);
#249 = CARTESIAN_POINT('',(101.75436293052,0.93146000818));
#250 = CARTESIAN_POINT('',(102.01551409026,0.93146000818));
#251 = CARTESIAN_POINT('',(102.28515856696,0.93106969072));
#252 = CARTESIAN_POINT('',(102.56152750119,0.93033144379));
#253 = CARTESIAN_POINT('',(102.84323474673,0.929271780735));
#254 = CARTESIAN_POINT('',(103.12899028645,0.927912596075));
#255 = CARTESIAN_POINT('',(103.41764109272,0.926271360538));
#256 = CARTESIAN_POINT('',(103.70822303766,0.924361846113));
#257 = CARTESIAN_POINT('',(104.,0.922191685894));
#258 = ( GEOMETRIC_REPRESENTATION_CONTEXT(2) 
PARAMETRIC_REPRESENTATION_CONTEXT() REPRESENTATION_CONTEXT('2D SPACE',''
  ) );
#259 = ADVANCED_FACE('',(#260),#130,.T.);
#260 = FACE_BOUND('',#261,.T.);
#261 = EDGE_LOOP('',(#262,#291,#319,#339,#340,#341));
#262 = ORIENTED_EDGE('',*,*,#263,.F.);
#263 = EDGE_CURVE('',#264,#266,#268,.T.);
#264 = VERTEX_POINT('',#265);
#265 = CARTESIAN_POINT('',(-0.5,80.5,112.));
#266 = VERTEX_POINT('',#267);
#267 = CARTESIAN_POINT('',(-8.732050807569,88.732050807569,
    120.23205080756));
#268 = SURFACE_CURVE('',#269,(#272,#279),.PCURVE_S1.);
#269 = B_SPLINE_CURVE_WITH_KNOTS('',1,(#270,#271),.UNSPECIFIED.,.F.,.F.,
  (2,2),(0.,1.),.PIECEWISE_BEZIER_KNOTS.);
#270 = CARTESIAN_POINT('',(30.,50.,81.5));
#271 = CARTESIAN_POINT('',(-12.,92.,123.5));
#272 = PCURVE('',#130,#273);
#273 = DEFINITIONAL_REPRESENTATION('',(#274),#278);
#274 = LINE('',#275,#276);
#275 = CARTESIAN_POINT('',(0.,0.));
#276 = VECTOR('',#277,1.);
#277 = DIRECTION('',(0.,1.));
#278 = ( GEOMETRIC_REPRESENTATION_CONTEXT(2) 
PARAMETRIC_REPRESENTATION_CONTEXT() REPRESENTATION_CONTEXT('2D SPACE',''
  ) );
#279 = PCURVE('',#280,#285);
#280 = B_SPLINE_SURFACE_WITH_KNOTS('',1,1,(
    (#281,#282)
    ,(#283,#284
    )),.UNSPECIFIED.,.F.,.F.,.F.,(2,2),(2,2),(0.,258.),(0.,1.),
  .PIECEWISE_BEZIER_KNOTS.);
#281 = CARTESIAN_POINT('',(204.,50.,81.5));
#282 = CARTESIAN_POINT('',(246.,92.,123.5));
#283 = CARTESIAN_POINT('',(30.,50.,81.5));
#284 = CARTESIAN_POINT('',(-12.,92.,123.5));
#285 = DEFINITIONAL_REPRESENTATION('',(#286),#290);
#286 = LINE('',#287,#288);
#287 = CARTESIAN_POINT('',(258.,0.));
#288 = VECTOR('',#289,1.);
#289 = DIRECTION('',(0.,1.));
#290 = ( GEOMETRIC_REPRESENTATION_CONTEXT(2) 
PARAMETRIC_REPRESENTATION_CONTEXT() REPRESENTATION_CONTEXT('2D SPACE',''
  ) );
#291 = ORIENTED_EDGE('',*,*,#292,.F.);
#292 = EDGE_CURVE('',#293,#264,#295,.T.);
#293 = VERTEX_POINT('',#294);
#294 = CARTESIAN_POINT('',(-0.5,-0.5,112.));
#295 = SURFACE_CURVE('',#296,(#300,#307),.PCURVE_S1.);
#296 = LINE('',#297,#298);
#297 = CARTESIAN_POINT('',(-0.5,-0.5,112.));
#298 = VECTOR('',#299,1.);
#299 = DIRECTION('',(0.,1.,0.));
#300 = PCURVE('',#130,#301);
#301 = DEFINITIONAL_REPRESENTATION('',(#302),#306);
#302 = B_SPLINE_CURVE_WITH_KNOTS('',2,(#303,#304,#305),.UNSPECIFIED.,.F.
  ,.F.,(3,3),(0.,81.),.PIECEWISE_BEZIER_KNOTS.);
#303 = CARTESIAN_POINT('',(104.,0.72619047619));
#304 = CARTESIAN_POINT('',(52.,0.72619047619));
#305 = CARTESIAN_POINT('',(0.,0.72619047619));
#306 = ( GEOMETRIC_REPRESENTATION_CONTEXT(2) 
PARAMETRIC_REPRESENTATION_CONTEXT() REPRESENTATION_CONTEXT('2D SPACE',''
  ) );
#307 = PCURVE('',#308,#313);
#308 = PLANE('',#309);
#309 = AXIS2_PLACEMENT_3D('',#310,#311,#312);
#310 = CARTESIAN_POINT('',(-0.5,-0.5,112.));
#311 = DIRECTION('',(0.,0.,1.));
#312 = DIRECTION('',(1.,0.,0.));
#313 = DEFINITIONAL_REPRESENTATION('',(#314),#318);
#314 = LINE('',#315,#316);
#315 = CARTESIAN_POINT('',(0.,0.));
#316 = VECTOR('',#317,1.);
#317 = DIRECTION('',(0.,1.));
#318 = ( GEOMETRIC_REPRESENTATION_CONTEXT(2) 
PARAMETRIC_REPRESENTATION_CONTEXT() REPRESENTATION_CONTEXT('2D SPACE',''
  ) );
#319 = ORIENTED_EDGE('',*,*,#320,.T.);
#320 = EDGE_CURVE('',#293,#176,#321,.T.);
#321 = SURFACE_CURVE('',#322,(#325,#332),.PCURVE_S1.);
#322 = B_SPLINE_CURVE_WITH_KNOTS('',1,(#323,#324),.UNSPECIFIED.,.F.,.F.,
  (2,2),(0.,1.),.PIECEWISE_BEZIER_KNOTS.);
#323 = CARTESIAN_POINT('',(30.,30.,81.5));
#324 = CARTESIAN_POINT('',(-12.,-12.,123.5));
#325 = PCURVE('',#130,#326);
#326 = DEFINITIONAL_REPRESENTATION('',(#327),#331);
#327 = LINE('',#328,#329);
#328 = CARTESIAN_POINT('',(104.,0.));
#329 = VECTOR('',#330,1.);
#330 = DIRECTION('',(0.,1.));
#331 = ( GEOMETRIC_REPRESENTATION_CONTEXT(2) 
PARAMETRIC_REPRESENTATION_CONTEXT() REPRESENTATION_CONTEXT('2D SPACE',''
  ) );
#332 = PCURVE('',#203,#333);
#333 = DEFINITIONAL_REPRESENTATION('',(#334),#338);
#334 = LINE('',#335,#336);
#335 = CARTESIAN_POINT('',(0.,0.));
#336 = VECTOR('',#337,1.);
#337 = DIRECTION('',(0.,1.));
#338 = ( GEOMETRIC_REPRESENTATION_CONTEXT(2) 
PARAMETRIC_REPRESENTATION_CONTEXT() REPRESENTATION_CONTEXT('2D SPACE',''
  ) );
#339 = ORIENTED_EDGE('',*,*,#221,.F.);
#340 = ORIENTED_EDGE('',*,*,#112,.T.);
#341 = ORIENTED_EDGE('',*,*,#342,.F.);
#342 = EDGE_CURVE('',#266,#84,#343,.T.);
#343 = SURFACE_CURVE('',#344,(#354,#367),.PCURVE_S1.);
#344 = B_SPLINE_CURVE_WITH_KNOTS('',8,(#345,#346,#347,#348,#349,#350,
    #351,#352,#353),.UNSPECIFIED.,.F.,.F.,(9,9),(0.,1.),
  .PIECEWISE_BEZIER_KNOTS.);
#345 = CARTESIAN_POINT('',(-8.732050807569,88.732050807569,
    120.23205080756));
#346 = CARTESIAN_POINT('',(-8.822445472434,88.551261477839,
    120.32244547243));
#347 = CARTESIAN_POINT('',(-8.902212678499,88.35937708734,
    120.40221267849));
#348 = CARTESIAN_POINT('',(-8.971042801834,88.156824916554,
    120.47104280183));
#349 = CARTESIAN_POINT('',(-9.028316423936,87.94400100748,
    120.52831642393));
#350 = CARTESIAN_POINT('',(-9.07321083857,87.721369059525,
    120.57321083857));
#351 = CARTESIAN_POINT('',(-9.104640640803,87.489444970446,
    120.6046406408));
#352 = CARTESIAN_POINT('',(-9.12132034356,87.248839844955,
    120.62132034356));
#353 = CARTESIAN_POINT('',(-9.12132034356,87.,120.62132034356));
#354 = PCURVE('',#130,#355);
#355 = DEFINITIONAL_REPRESENTATION('',(#356),#366);
#356 = B_SPLINE_CURVE_WITH_KNOTS('',8,(#357,#358,#359,#360,#361,#362,
    #363,#364,#365),.UNSPECIFIED.,.F.,.F.,(9,9),(0.,1.),
  .PIECEWISE_BEZIER_KNOTS.);
#357 = CARTESIAN_POINT('',(0.,0.922191685894));
#358 = CARTESIAN_POINT('',(0.289369470097,0.92434393982));
#359 = CARTESIAN_POINT('',(0.578011036103,0.926243159012));
#360 = CARTESIAN_POINT('',(0.865396050027,0.927881971472));
#361 = CARTESIAN_POINT('',(1.150715644815,0.929245629141));
#362 = CARTESIAN_POINT('',(1.432906043528,0.930314543775));
#363 = CARTESIAN_POINT('',(1.710614254625,0.9310628724));
#364 = CARTESIAN_POINT('',(1.982214346976,0.93146000818));
#365 = CARTESIAN_POINT('',(2.245637069476,0.93146000818));
#366 = ( GEOMETRIC_REPRESENTATION_CONTEXT(2) 
PARAMETRIC_REPRESENTATION_CONTEXT() REPRESENTATION_CONTEXT('2D SPACE',''
  ) );
#367 = PCURVE('',#100,#368);
#368 = DEFINITIONAL_REPRESENTATION('',(#369),#379);
#369 = B_SPLINE_CURVE_WITH_KNOTS('',8,(#370,#371,#372,#373,#374,#375,
    #376,#377,#378),.UNSPECIFIED.,.F.,.F.,(9,9),(0.,1.),
  .PIECEWISE_BEZIER_KNOTS.);
#370 = CARTESIAN_POINT('',(-0.785398163397,-0.61547970867));
#371 = CARTESIAN_POINT('',(-0.785398163397,-0.541672773874));
#372 = CARTESIAN_POINT('',(-0.785398163397,-0.467738448762));
#373 = CARTESIAN_POINT('',(-0.785398163397,-0.393265598197));
#374 = CARTESIAN_POINT('',(-0.785398163397,-0.317905433873));
#375 = CARTESIAN_POINT('',(-0.785398163397,-0.241325424366));
#376 = CARTESIAN_POINT('',(-0.785398163397,-0.163148424336));
#377 = CARTESIAN_POINT('',(-0.785398163397,-8.294661498513E-02));
#378 = CARTESIAN_POINT('',(-0.785398163397,0.));
#379 = ( GEOMETRIC_REPRESENTATION_CONTEXT(2) 
PARAMETRIC_REPRESENTATION_CONTEXT() REPRESENTATION_CONTEXT('2D SPACE',''
  ) );
#380 = ADVANCED_FACE('',(#381),#100,.T.);
#381 = FACE_BOUND('',#382,.F.);
#382 = EDGE_LOOP('',(#383,#424,#449,#450));
#383 = ORIENTED_EDGE('',*,*,#384,.F.);
#384 = EDGE_CURVE('',#385,#266,#387,.T.);
#385 = VERTEX_POINT('',#386);
#386 = CARTESIAN_POINT('',(-7.,89.12132034356,120.62132034356));
#387 = SURFACE_CURVE('',#388,(#398,#411),.PCURVE_S1.);
#388 = B_SPLINE_CURVE_WITH_KNOTS('',8,(#389,#390,#391,#392,#393,#394,
    #395,#396,#397),.UNSPECIFIED.,.F.,.F.,(9,9),(0.,1.),
  .PIECEWISE_BEZIER_KNOTS.);
#389 = CARTESIAN_POINT('',(-7.,89.12132034356,120.62132034356));
#390 = CARTESIAN_POINT('',(-7.246035115305,89.12132034356,
    120.62132034356));
#391 = CARTESIAN_POINT('',(-7.484525206387,89.105014441079,
    120.60501444107));
#392 = CARTESIAN_POINT('',(-7.715227774236,89.074151098592,
    120.57415109859));
#393 = CARTESIAN_POINT('',(-7.937632323743,89.029801242328,
    120.52980124232));
#394 = CARTESIAN_POINT('',(-8.151143778277,88.972835404257,
    120.47283540425));
#395 = CARTESIAN_POINT('',(-8.35512389993,88.9039274929,120.4039274929)
  );
#396 = CARTESIAN_POINT('',(-8.548974588924,88.823588916891,
    120.32358891689));
#397 = CARTESIAN_POINT('',(-8.732050807569,88.732050807569,
    120.23205080756));
#398 = PCURVE('',#100,#399);
#399 = DEFINITIONAL_REPRESENTATION('',(#400),#410);
#400 = B_SPLINE_CURVE_WITH_KNOTS('',8,(#401,#402,#403,#404,#405,#406,
    #407,#408,#409),.UNSPECIFIED.,.F.,.F.,(9,9),(0.,1.),
  .PIECEWISE_BEZIER_KNOTS.);
#401 = CARTESIAN_POINT('',(-1.570796326795,-0.785398163397));
#402 = CARTESIAN_POINT('',(-1.454814261167,-0.785398163397));
#403 = CARTESIAN_POINT('',(-1.342389539402,-0.777711499291));
#404 = CARTESIAN_POINT('',(-1.234820024067,-0.763162370398));
#405 = CARTESIAN_POINT('',(-1.133251304987,-0.742586118442));
#406 = CARTESIAN_POINT('',(-1.037952626459,-0.71688128533));
#407 = CARTESIAN_POINT('',(-0.948611829217,-0.686776567394));
#408 = CARTESIAN_POINT('',(-0.864672491485,-0.652849985314));
#409 = CARTESIAN_POINT('',(-0.785398163397,-0.61547970867));
#410 = ( GEOMETRIC_REPRESENTATION_CONTEXT(2) 
PARAMETRIC_REPRESENTATION_CONTEXT() REPRESENTATION_CONTEXT('2D SPACE',''
  ) );
#411 = PCURVE('',#280,#412);
#412 = DEFINITIONAL_REPRESENTATION('',(#413),#423);
#413 = B_SPLINE_CURVE_WITH_KNOTS('',8,(#414,#415,#416,#417,#418,#419,
    #420,#421,#422),.UNSPECIFIED.,.F.,.F.,(9,9),(0.,1.),
  .PIECEWISE_BEZIER_KNOTS.);
#414 = CARTESIAN_POINT('',(255.83026118364,0.93146000818));
#415 = CARTESIAN_POINT('',(256.08191197344,0.93146000818));
#416 = CARTESIAN_POINT('',(256.34224308648,0.931071772407));
#417 = CARTESIAN_POINT('',(256.60937833441,0.930336930919));
#418 = CARTESIAN_POINT('',(256.88183901852,0.92928098196));
#419 = CARTESIAN_POINT('',(257.15825505402,0.927924652482));
#420 = CARTESIAN_POINT('',(257.43740110451,0.926283987926));
#421 = CARTESIAN_POINT('',(257.71824806737,0.924371164688));
#422 = CARTESIAN_POINT('',(258.,0.922191685894));
#423 = ( GEOMETRIC_REPRESENTATION_CONTEXT(2) 
PARAMETRIC_REPRESENTATION_CONTEXT() REPRESENTATION_CONTEXT('2D SPACE',''
  ) );
#424 = ORIENTED_EDGE('',*,*,#425,.T.);
#425 = EDGE_CURVE('',#385,#56,#426,.T.);
#426 = SURFACE_CURVE('',#427,(#432,#438),.PCURVE_S1.);
#427 = CIRCLE('',#428,3.);
#428 = AXIS2_PLACEMENT_3D('',#429,#430,#431);
#429 = CARTESIAN_POINT('',(-7.,87.,118.5));
#430 = DIRECTION('',(1.,0.,6.123233995737E-17));
#431 = DIRECTION('',(-6.123233995737E-17,0.,1.));
#432 = PCURVE('',#100,#433);
#433 = DEFINITIONAL_REPRESENTATION('',(#434),#437);
#434 = B_SPLINE_CURVE_WITH_KNOTS('',1,(#435,#436),.UNSPECIFIED.,.F.,.F.,
  (2,2),(4.712388980385,6.28318530718),.PIECEWISE_BEZIER_KNOTS.);
#435 = CARTESIAN_POINT('',(-1.570796326795,-1.570796326795));
#436 = CARTESIAN_POINT('',(-1.570796326795,0.));
#437 = ( GEOMETRIC_REPRESENTATION_CONTEXT(2) 
PARAMETRIC_REPRESENTATION_CONTEXT() REPRESENTATION_CONTEXT('2D SPACE',''
  ) );
#438 = PCURVE('',#439,#444);
#439 = CYLINDRICAL_SURFACE('',#440,3.);
#440 = AXIS2_PLACEMENT_3D('',#441,#442,#443);
#441 = CARTESIAN_POINT('',(-10.,87.,118.5));
#442 = DIRECTION('',(1.,0.,0.));
#443 = DIRECTION('',(-0.,1.,0.));
#444 = DEFINITIONAL_REPRESENTATION('',(#445),#448);
#445 = B_SPLINE_CURVE_WITH_KNOTS('',1,(#446,#447),.UNSPECIFIED.,.F.,.F.,
  (2,2),(4.712388980385,6.28318530718),.PIECEWISE_BEZIER_KNOTS.);
#446 = CARTESIAN_POINT('',(0.,3.));
#447 = CARTESIAN_POINT('',(1.570796326795,3.));
#448 = ( GEOMETRIC_REPRESENTATION_CONTEXT(2) 
PARAMETRIC_REPRESENTATION_CONTEXT() REPRESENTATION_CONTEXT('2D SPACE',''
  ) );
#449 = ORIENTED_EDGE('',*,*,#83,.F.);
#450 = ORIENTED_EDGE('',*,*,#342,.F.);
#451 = ADVANCED_FACE('',(#452,#527,#562,#597),#71,.T.);
#452 = FACE_BOUND('',#453,.T.);
#453 = EDGE_LOOP('',(#454,#455,#478,#506));
#454 = ORIENTED_EDGE('',*,*,#55,.F.);
#455 = ORIENTED_EDGE('',*,*,#456,.T.);
#456 = EDGE_CURVE('',#22,#457,#459,.T.);
#457 = VERTEX_POINT('',#458);
#458 = CARTESIAN_POINT('',(241.,-7.,121.5));
#459 = SURFACE_CURVE('',#460,(#464,#471),.PCURVE_S1.);
#460 = LINE('',#461,#462);
#461 = CARTESIAN_POINT('',(-10.,-7.,121.5));
#462 = VECTOR('',#463,1.);
#463 = DIRECTION('',(1.,0.,0.));
#464 = PCURVE('',#71,#465);
#465 = DEFINITIONAL_REPRESENTATION('',(#466),#470);
#466 = LINE('',#467,#468);
#467 = CARTESIAN_POINT('',(0.,3.));
#468 = VECTOR('',#469,1.);
#469 = DIRECTION('',(1.,0.));
#470 = ( GEOMETRIC_REPRESENTATION_CONTEXT(2) 
PARAMETRIC_REPRESENTATION_CONTEXT() REPRESENTATION_CONTEXT('2D SPACE',''
  ) );
#471 = PCURVE('',#164,#472);
#472 = DEFINITIONAL_REPRESENTATION('',(#473),#477);
#473 = LINE('',#474,#475);
#474 = CARTESIAN_POINT('',(-1.570796326795,0.));
#475 = VECTOR('',#476,1.);
#476 = DIRECTION('',(-0.,1.));
#477 = ( GEOMETRIC_REPRESENTATION_CONTEXT(2) 
PARAMETRIC_REPRESENTATION_CONTEXT() REPRESENTATION_CONTEXT('2D SPACE',''
  ) );
#478 = ORIENTED_EDGE('',*,*,#479,.T.);
#479 = EDGE_CURVE('',#457,#480,#482,.T.);
#480 = VERTEX_POINT('',#481);
#481 = CARTESIAN_POINT('',(241.,87.,121.5));
#482 = SURFACE_CURVE('',#483,(#487,#494),.PCURVE_S1.);
#483 = LINE('',#484,#485);
#484 = CARTESIAN_POINT('',(241.,-10.,121.5));
#485 = VECTOR('',#486,1.);
#486 = DIRECTION('',(0.,1.,0.));
#487 = PCURVE('',#71,#488);
#488 = DEFINITIONAL_REPRESENTATION('',(#489),#493);
#489 = LINE('',#490,#491);
#490 = CARTESIAN_POINT('',(251.,0.));
#491 = VECTOR('',#492,1.);
#492 = DIRECTION('',(0.,1.));
#493 = ( GEOMETRIC_REPRESENTATION_CONTEXT(2) 
PARAMETRIC_REPRESENTATION_CONTEXT() REPRESENTATION_CONTEXT('2D SPACE',''
  ) );
#494 = PCURVE('',#495,#500);
#495 = CYLINDRICAL_SURFACE('',#496,3.);
#496 = AXIS2_PLACEMENT_3D('',#497,#498,#499);
#497 = CARTESIAN_POINT('',(241.,-10.,118.5));
#498 = DIRECTION('',(0.,1.,0.));
#499 = DIRECTION('',(1.,0.,-0.));
#500 = DEFINITIONAL_REPRESENTATION('',(#501),#505);
#501 = LINE('',#502,#503);
#502 = CARTESIAN_POINT('',(-1.570796326795,0.));
#503 = VECTOR('',#504,1.);
#504 = DIRECTION('',(-0.,1.));
#505 = ( GEOMETRIC_REPRESENTATION_CONTEXT(2) 
PARAMETRIC_REPRESENTATION_CONTEXT() REPRESENTATION_CONTEXT('2D SPACE',''
  ) );
#506 = ORIENTED_EDGE('',*,*,#507,.F.);
#507 = EDGE_CURVE('',#56,#480,#508,.T.);
#508 = SURFACE_CURVE('',#509,(#513,#520),.PCURVE_S1.);
#509 = LINE('',#510,#511);
#510 = CARTESIAN_POINT('',(-10.,87.,121.5));
#511 = VECTOR('',#512,1.);
#512 = DIRECTION('',(1.,0.,0.));
#513 = PCURVE('',#71,#514);
#514 = DEFINITIONAL_REPRESENTATION('',(#515),#519);
#515 = LINE('',#516,#517);
#516 = CARTESIAN_POINT('',(0.,97.));
#517 = VECTOR('',#518,1.);
#518 = DIRECTION('',(1.,0.));
#519 = ( GEOMETRIC_REPRESENTATION_CONTEXT(2) 
PARAMETRIC_REPRESENTATION_CONTEXT() REPRESENTATION_CONTEXT('2D SPACE',''
  ) );
#520 = PCURVE('',#439,#521);
#521 = DEFINITIONAL_REPRESENTATION('',(#522),#526);
#522 = LINE('',#523,#524);
#523 = CARTESIAN_POINT('',(1.570796326795,0.));
#524 = VECTOR('',#525,1.);
#525 = DIRECTION('',(0.,1.));
#526 = ( GEOMETRIC_REPRESENTATION_CONTEXT(2) 
PARAMETRIC_REPRESENTATION_CONTEXT() REPRESENTATION_CONTEXT('2D SPACE',''
  ) );
#527 = FACE_BOUND('',#528,.T.);
#528 = EDGE_LOOP('',(#529));
#529 = ORIENTED_EDGE('',*,*,#530,.T.);
#530 = EDGE_CURVE('',#531,#531,#533,.T.);
#531 = VERTEX_POINT('',#532);
#532 = CARTESIAN_POINT('',(222.,24.,121.5));
#533 = SURFACE_CURVE('',#534,(#539,#550),.PCURVE_S1.);
#534 = CIRCLE('',#535,4.);
#535 = AXIS2_PLACEMENT_3D('',#536,#537,#538);
#536 = CARTESIAN_POINT('',(218.,24.,121.5));
#537 = DIRECTION('',(0.,0.,-1.));
#538 = DIRECTION('',(1.,0.,0.));
#539 = PCURVE('',#71,#540);
#540 = DEFINITIONAL_REPRESENTATION('',(#541),#549);
#541 = ( BOUNDED_CURVE() B_SPLINE_CURVE(2,(#542,#543,#544,#545,#546,#547
,#548),.UNSPECIFIED.,.T.,.F.) B_SPLINE_CURVE_WITH_KNOTS((1,2,2,2,2,1),(
    -2.094395102393,0.,2.094395102393,4.188790204786,6.28318530718,
8.377580409573),.UNSPECIFIED.) CURVE() GEOMETRIC_REPRESENTATION_ITEM() 
RATIONAL_B_SPLINE_CURVE((1.,0.5,1.,0.5,1.,0.5,1.)) REPRESENTATION_ITEM(
  '') );
#542 = CARTESIAN_POINT('',(232.,34.));
#543 = CARTESIAN_POINT('',(232.,27.071796769724));
#544 = CARTESIAN_POINT('',(226.,30.535898384862));
#545 = CARTESIAN_POINT('',(220.,34.));
#546 = CARTESIAN_POINT('',(226.,37.464101615138));
#547 = CARTESIAN_POINT('',(232.,40.928203230276));
#548 = CARTESIAN_POINT('',(232.,34.));
#549 = ( GEOMETRIC_REPRESENTATION_CONTEXT(2) 
PARAMETRIC_REPRESENTATION_CONTEXT() REPRESENTATION_CONTEXT('2D SPACE',''
  ) );
#550 = PCURVE('',#551,#556);
#551 = CYLINDRICAL_SURFACE('',#552,4.);
#552 = AXIS2_PLACEMENT_3D('',#553,#554,#555);
#553 = CARTESIAN_POINT('',(218.,24.,111.));
#554 = DIRECTION('',(-0.,-0.,-1.));
#555 = DIRECTION('',(1.,0.,0.));
#556 = DEFINITIONAL_REPRESENTATION('',(#557),#561);
#557 = LINE('',#558,#559);
#558 = CARTESIAN_POINT('',(-6.28318530718,-10.5));
#559 = VECTOR('',#560,1.);
#560 = DIRECTION('',(1.,-0.));
#561 = ( GEOMETRIC_REPRESENTATION_CONTEXT(2) 
PARAMETRIC_REPRESENTATION_CONTEXT() REPRESENTATION_CONTEXT('2D SPACE',''
  ) );
#562 = FACE_BOUND('',#563,.T.);
#563 = EDGE_LOOP('',(#564));
#564 = ORIENTED_EDGE('',*,*,#565,.T.);
#565 = EDGE_CURVE('',#566,#566,#568,.T.);
#566 = VERTEX_POINT('',#567);
#567 = CARTESIAN_POINT('',(222.,38.,121.5));
#568 = SURFACE_CURVE('',#569,(#574,#585),.PCURVE_S1.);
#569 = CIRCLE('',#570,4.);
#570 = AXIS2_PLACEMENT_3D('',#571,#572,#573);
#571 = CARTESIAN_POINT('',(218.,38.,121.5));
#572 = DIRECTION('',(0.,0.,-1.));
#573 = DIRECTION('',(1.,0.,0.));
#574 = PCURVE('',#71,#575);
#575 = DEFINITIONAL_REPRESENTATION('',(#576),#584);
#576 = ( BOUNDED_CURVE() B_SPLINE_CURVE(2,(#577,#578,#579,#580,#581,#582
,#583),.UNSPECIFIED.,.T.,.F.) B_SPLINE_CURVE_WITH_KNOTS((1,2,2,2,2,1),(
    -2.094395102393,0.,2.094395102393,4.188790204786,6.28318530718,
8.377580409573),.UNSPECIFIED.) CURVE() GEOMETRIC_REPRESENTATION_ITEM() 
RATIONAL_B_SPLINE_CURVE((1.,0.5,1.,0.5,1.,0.5,1.)) REPRESENTATION_ITEM(
  '') );
#577 = CARTESIAN_POINT('',(232.,48.));
#578 = CARTESIAN_POINT('',(232.,41.071796769724));
#579 = CARTESIAN_POINT('',(226.,44.535898384862));
#580 = CARTESIAN_POINT('',(220.,48.));
#581 = CARTESIAN_POINT('',(226.,51.464101615138));
#582 = CARTESIAN_POINT('',(232.,54.928203230276));
#583 = CARTESIAN_POINT('',(232.,48.));
#584 = ( GEOMETRIC_REPRESENTATION_CONTEXT(2) 
PARAMETRIC_REPRESENTATION_CONTEXT() REPRESENTATION_CONTEXT('2D SPACE',''
  ) );
#585 = PCURVE('',#586,#591);
#586 = CYLINDRICAL_SURFACE('',#587,4.);
#587 = AXIS2_PLACEMENT_3D('',#588,#589,#590);
#588 = CARTESIAN_POINT('',(218.,38.,111.));
#589 = DIRECTION('',(-0.,-0.,-1.));
#590 = DIRECTION('',(1.,0.,0.));
#591 = DEFINITIONAL_REPRESENTATION('',(#592),#596);
#592 = LINE('',#593,#594);
#593 = CARTESIAN_POINT('',(-6.28318530718,-10.5));
#594 = VECTOR('',#595,1.);
#595 = DIRECTION('',(1.,-0.));
#596 = ( GEOMETRIC_REPRESENTATION_CONTEXT(2) 
PARAMETRIC_REPRESENTATION_CONTEXT() REPRESENTATION_CONTEXT('2D SPACE',''
  ) );
#597 = FACE_BOUND('',#598,.T.);
#598 = EDGE_LOOP('',(#599));
#599 = ORIENTED_EDGE('',*,*,#600,.T.);
#600 = EDGE_CURVE('',#601,#601,#603,.T.);
#601 = VERTEX_POINT('',#602);
#602 = CARTESIAN_POINT('',(222.,52.,121.5));
#603 = SURFACE_CURVE('',#604,(#609,#620),.PCURVE_S1.);
#604 = CIRCLE('',#605,4.);
#605 = AXIS2_PLACEMENT_3D('',#606,#607,#608);
#606 = CARTESIAN_POINT('',(218.,52.,121.5));
#607 = DIRECTION('',(0.,0.,-1.));
#608 = DIRECTION('',(1.,0.,0.));
#609 = PCURVE('',#71,#610);
#610 = DEFINITIONAL_REPRESENTATION('',(#611),#619);
#611 = ( BOUNDED_CURVE() B_SPLINE_CURVE(2,(#612,#613,#614,#615,#616,#617
,#618),.UNSPECIFIED.,.T.,.F.) B_SPLINE_CURVE_WITH_KNOTS((1,2,2,2,2,1),(
    -2.094395102393,0.,2.094395102393,4.188790204786,6.28318530718,
8.377580409573),.UNSPECIFIED.) CURVE() GEOMETRIC_REPRESENTATION_ITEM() 
RATIONAL_B_SPLINE_CURVE((1.,0.5,1.,0.5,1.,0.5,1.)) REPRESENTATION_ITEM(
  '') );
#612 = CARTESIAN_POINT('',(232.,62.));
#613 = CARTESIAN_POINT('',(232.,55.071796769724));
#614 = CARTESIAN_POINT('',(226.,58.535898384862));
#615 = CARTESIAN_POINT('',(220.,62.));
#616 = CARTESIAN_POINT('',(226.,65.464101615138));
#617 = CARTESIAN_POINT('',(232.,68.928203230276));
#618 = CARTESIAN_POINT('',(232.,62.));
#619 = ( GEOMETRIC_REPRESENTATION_CONTEXT(2) 
PARAMETRIC_REPRESENTATION_CONTEXT() REPRESENTATION_CONTEXT('2D SPACE',''
  ) );
#620 = PCURVE('',#621,#626);
#621 = CYLINDRICAL_SURFACE('',#622,4.);
#622 = AXIS2_PLACEMENT_3D('',#623,#624,#625);
#623 = CARTESIAN_POINT('',(218.,52.,111.));
#624 = DIRECTION('',(-0.,-0.,-1.));
#625 = DIRECTION('',(1.,0.,0.));
#626 = DEFINITIONAL_REPRESENTATION('',(#627),#631);
#627 = LINE('',#628,#629);
#628 = CARTESIAN_POINT('',(-6.28318530718,-10.5));
#629 = VECTOR('',#630,1.);
#630 = DIRECTION('',(1.,-0.));
#631 = ( GEOMETRIC_REPRESENTATION_CONTEXT(2) 
PARAMETRIC_REPRESENTATION_CONTEXT() REPRESENTATION_CONTEXT('2D SPACE',''
  ) );
#632 = ADVANCED_FACE('',(#633),#203,.T.);
#633 = FACE_BOUND('',#634,.T.);
#634 = EDGE_LOOP('',(#635,#636,#659,#686,#732,#759));
#635 = ORIENTED_EDGE('',*,*,#320,.F.);
#636 = ORIENTED_EDGE('',*,*,#637,.T.);
#637 = EDGE_CURVE('',#293,#638,#640,.T.);
#638 = VERTEX_POINT('',#639);
#639 = CARTESIAN_POINT('',(234.5,-0.5,112.));
#640 = SURFACE_CURVE('',#641,(#645,#652),.PCURVE_S1.);
#641 = LINE('',#642,#643);
#642 = CARTESIAN_POINT('',(-0.5,-0.5,112.));
#643 = VECTOR('',#644,1.);
#644 = DIRECTION('',(1.,0.,0.));
#645 = PCURVE('',#203,#646);
#646 = DEFINITIONAL_REPRESENTATION('',(#647),#651);
#647 = B_SPLINE_CURVE_WITH_KNOTS('',2,(#648,#649,#650),.UNSPECIFIED.,.F.
  ,.F.,(3,3),(0.,235.),.PIECEWISE_BEZIER_KNOTS.);
#648 = CARTESIAN_POINT('',(0.,0.72619047619));
#649 = CARTESIAN_POINT('',(129.,0.72619047619));
#650 = CARTESIAN_POINT('',(258.,0.72619047619));
#651 = ( GEOMETRIC_REPRESENTATION_CONTEXT(2) 
PARAMETRIC_REPRESENTATION_CONTEXT() REPRESENTATION_CONTEXT('2D SPACE',''
  ) );
#652 = PCURVE('',#308,#653);
#653 = DEFINITIONAL_REPRESENTATION('',(#654),#658);
#654 = LINE('',#655,#656);
#655 = CARTESIAN_POINT('',(0.,0.));
#656 = VECTOR('',#657,1.);
#657 = DIRECTION('',(1.,0.));
#658 = ( GEOMETRIC_REPRESENTATION_CONTEXT(2) 
PARAMETRIC_REPRESENTATION_CONTEXT() REPRESENTATION_CONTEXT('2D SPACE',''
  ) );
#659 = ORIENTED_EDGE('',*,*,#660,.T.);
#660 = EDGE_CURVE('',#638,#661,#663,.T.);
#661 = VERTEX_POINT('',#662);
#662 = CARTESIAN_POINT('',(242.73205080756,-8.732050807569,
    120.23205080756));
#663 = SURFACE_CURVE('',#664,(#667,#674),.PCURVE_S1.);
#664 = B_SPLINE_CURVE_WITH_KNOTS('',1,(#665,#666),.UNSPECIFIED.,.F.,.F.,
  (2,2),(0.,1.),.PIECEWISE_BEZIER_KNOTS.);
#665 = CARTESIAN_POINT('',(204.,30.,81.5));
#666 = CARTESIAN_POINT('',(246.,-12.,123.5));
#667 = PCURVE('',#203,#668);
#668 = DEFINITIONAL_REPRESENTATION('',(#669),#673);
#669 = LINE('',#670,#671);
#670 = CARTESIAN_POINT('',(258.,0.));
#671 = VECTOR('',#672,1.);
#672 = DIRECTION('',(0.,1.));
#673 = ( GEOMETRIC_REPRESENTATION_CONTEXT(2) 
PARAMETRIC_REPRESENTATION_CONTEXT() REPRESENTATION_CONTEXT('2D SPACE',''
  ) );
#674 = PCURVE('',#675,#680);
#675 = B_SPLINE_SURFACE_WITH_KNOTS('',1,1,(
    (#676,#677)
    ,(#678,#679
    )),.UNSPECIFIED.,.F.,.F.,.F.,(2,2),(2,2),(0.,104.),(0.,1.),
  .PIECEWISE_BEZIER_KNOTS.);
#676 = CARTESIAN_POINT('',(204.,30.,81.5));
#677 = CARTESIAN_POINT('',(246.,-12.,123.5));
#678 = CARTESIAN_POINT('',(204.,50.,81.5));
#679 = CARTESIAN_POINT('',(246.,92.,123.5));
#680 = DEFINITIONAL_REPRESENTATION('',(#681),#685);
#681 = LINE('',#682,#683);
#682 = CARTESIAN_POINT('',(0.,0.));
#683 = VECTOR('',#684,1.);
#684 = DIRECTION('',(0.,1.));
#685 = ( GEOMETRIC_REPRESENTATION_CONTEXT(2) 
PARAMETRIC_REPRESENTATION_CONTEXT() REPRESENTATION_CONTEXT('2D SPACE',''
  ) );
#686 = ORIENTED_EDGE('',*,*,#687,.F.);
#687 = EDGE_CURVE('',#688,#661,#690,.T.);
#688 = VERTEX_POINT('',#689);
#689 = CARTESIAN_POINT('',(241.,-9.12132034356,120.62132034356));
#690 = SURFACE_CURVE('',#691,(#701,#714),.PCURVE_S1.);
#691 = B_SPLINE_CURVE_WITH_KNOTS('',8,(#692,#693,#694,#695,#696,#697,
    #698,#699,#700),.UNSPECIFIED.,.F.,.F.,(9,9),(0.,1.),
  .PIECEWISE_BEZIER_KNOTS.);
#692 = CARTESIAN_POINT('',(241.,-9.12132034356,120.62132034356));
#693 = CARTESIAN_POINT('',(241.24603511529,-9.12132034356,
    120.62132034356));
#694 = CARTESIAN_POINT('',(241.48452520637,-9.10501444108,
    120.60501444108));
#695 = CARTESIAN_POINT('',(241.71522777423,-9.074151098595,
    120.57415109859));
#696 = CARTESIAN_POINT('',(241.93763232374,-9.029801242328,
    120.52980124232));
#697 = CARTESIAN_POINT('',(242.15114377828,-8.972835404256,
    120.47283540425));
#698 = CARTESIAN_POINT('',(242.35512389993,-8.903927492898,
    120.40392749289));
#699 = CARTESIAN_POINT('',(242.54897458892,-8.823588916889,
    120.32358891688));
#700 = CARTESIAN_POINT('',(242.73205080756,-8.732050807569,
    120.23205080756));
#701 = PCURVE('',#203,#702);
#702 = DEFINITIONAL_REPRESENTATION('',(#703),#713);
#703 = B_SPLINE_CURVE_WITH_KNOTS('',8,(#704,#705,#706,#707,#708,#709,
    #710,#711,#712),.UNSPECIFIED.,.F.,.F.,(9,9),(0.,1.),
  .PIECEWISE_BEZIER_KNOTS.);
#704 = CARTESIAN_POINT('',(255.83026118364,0.93146000818));
#705 = CARTESIAN_POINT('',(256.08191197343,0.93146000818));
#706 = CARTESIAN_POINT('',(256.34224308646,0.931071772407));
#707 = CARTESIAN_POINT('',(256.60937833441,0.930336930919));
#708 = CARTESIAN_POINT('',(256.88183901852,0.92928098196));
#709 = CARTESIAN_POINT('',(257.15825505403,0.927924652482));
#710 = CARTESIAN_POINT('',(257.43740110451,0.926283987926));
#711 = CARTESIAN_POINT('',(257.71824806738,0.924371164688));
#712 = CARTESIAN_POINT('',(258.,0.922191685894));
#713 = ( GEOMETRIC_REPRESENTATION_CONTEXT(2) 
PARAMETRIC_REPRESENTATION_CONTEXT() REPRESENTATION_CONTEXT('2D SPACE',''
  ) );
#714 = PCURVE('',#715,#720);
#715 = SPHERICAL_SURFACE('',#716,3.);
#716 = AXIS2_PLACEMENT_3D('',#717,#718,#719);
#717 = CARTESIAN_POINT('',(241.,-7.,118.5));
#718 = DIRECTION('',(-0.,-0.,-1.));
#719 = DIRECTION('',(1.,0.,0.));
#720 = DEFINITIONAL_REPRESENTATION('',(#721),#731);
#721 = B_SPLINE_CURVE_WITH_KNOTS('',8,(#722,#723,#724,#725,#726,#727,
    #728,#729,#730),.UNSPECIFIED.,.F.,.F.,(9,9),(0.,1.),
  .PIECEWISE_BEZIER_KNOTS.);
#722 = CARTESIAN_POINT('',(1.570796326795,-0.785398163397));
#723 = CARTESIAN_POINT('',(1.454814261171,-0.785398163397));
#724 = CARTESIAN_POINT('',(1.342389539408,-0.777711499291));
#725 = CARTESIAN_POINT('',(1.23482002407,-0.7631623704));
#726 = CARTESIAN_POINT('',(1.133251304985,-0.742586118442));
#727 = CARTESIAN_POINT('',(1.037952626457,-0.716881285329));
#728 = CARTESIAN_POINT('',(0.948611829215,-0.686776567393));
#729 = CARTESIAN_POINT('',(0.864672491483,-0.652849985313));
#730 = CARTESIAN_POINT('',(0.785398163397,-0.61547970867));
#731 = ( GEOMETRIC_REPRESENTATION_CONTEXT(2) 
PARAMETRIC_REPRESENTATION_CONTEXT() REPRESENTATION_CONTEXT('2D SPACE',''
  ) );
#732 = ORIENTED_EDGE('',*,*,#733,.T.);
#733 = EDGE_CURVE('',#688,#149,#734,.T.);
#734 = SURFACE_CURVE('',#735,(#741,#750),.PCURVE_S1.);
#735 = B_SPLINE_CURVE_WITH_KNOTS('',4,(#736,#737,#738,#739,#740),
  .UNSPECIFIED.,.F.,.F.,(5,5),(0.,1.),.PIECEWISE_BEZIER_KNOTS.);
#736 = CARTESIAN_POINT('',(241.0000006,-9.12132034356,120.62132034356));
#737 = CARTESIAN_POINT('',(179.0000003,-9.12132034356,120.62132034356));
#738 = CARTESIAN_POINT('',(117.,-9.12132034356,120.62132034356));
#739 = CARTESIAN_POINT('',(54.9999997,-9.12132034356,120.62132034356));
#740 = CARTESIAN_POINT('',(-7.0000006,-9.12132034356,120.62132034356));
#741 = PCURVE('',#203,#742);
#742 = DEFINITIONAL_REPRESENTATION('',(#743),#749);
#743 = B_SPLINE_CURVE_WITH_KNOTS('',4,(#744,#745,#746,#747,#748),
  .UNSPECIFIED.,.F.,.F.,(5,5),(0.,1.),.PIECEWISE_BEZIER_KNOTS.);
#744 = CARTESIAN_POINT('',(255.83026179734,0.93146000818));
#745 = CARTESIAN_POINT('',(192.41513089867,0.93146000818));
#746 = CARTESIAN_POINT('',(129.,0.93146000818));
#747 = CARTESIAN_POINT('',(65.584869101329,0.93146000818));
#748 = CARTESIAN_POINT('',(2.169738202659,0.93146000818));
#749 = ( GEOMETRIC_REPRESENTATION_CONTEXT(2) 
PARAMETRIC_REPRESENTATION_CONTEXT() REPRESENTATION_CONTEXT('2D SPACE',''
  ) );
#750 = PCURVE('',#164,#751);
#751 = DEFINITIONAL_REPRESENTATION('',(#752),#758);
#752 = B_SPLINE_CURVE_WITH_KNOTS('',4,(#753,#754,#755,#756,#757),
  .UNSPECIFIED.,.F.,.F.,(5,5),(0.,1.),.PIECEWISE_BEZIER_KNOTS.);
#753 = CARTESIAN_POINT('',(-0.785398163397,251.0000006));
#754 = CARTESIAN_POINT('',(-0.785398163397,189.0000003));
#755 = CARTESIAN_POINT('',(-0.785398163397,127.));
#756 = CARTESIAN_POINT('',(-0.785398163397,64.9999997));
#757 = CARTESIAN_POINT('',(-0.785398163397,2.9999994));
#758 = ( GEOMETRIC_REPRESENTATION_CONTEXT(2) 
PARAMETRIC_REPRESENTATION_CONTEXT() REPRESENTATION_CONTEXT('2D SPACE',''
  ) );
#759 = ORIENTED_EDGE('',*,*,#175,.F.);
#760 = ADVANCED_FACE('',(#761),#164,.T.);
#761 = FACE_BOUND('',#762,.F.);
#762 = EDGE_LOOP('',(#763,#764,#765,#785));
#763 = ORIENTED_EDGE('',*,*,#148,.F.);
#764 = ORIENTED_EDGE('',*,*,#456,.T.);
#765 = ORIENTED_EDGE('',*,*,#766,.T.);
#766 = EDGE_CURVE('',#457,#688,#767,.T.);
#767 = SURFACE_CURVE('',#768,(#773,#779),.PCURVE_S1.);
#768 = CIRCLE('',#769,3.);
#769 = AXIS2_PLACEMENT_3D('',#770,#771,#772);
#770 = CARTESIAN_POINT('',(241.,-7.,118.5));
#771 = DIRECTION('',(1.,6.123233995737E-17,0.));
#772 = DIRECTION('',(6.123233995737E-17,-1.,0.));
#773 = PCURVE('',#164,#774);
#774 = DEFINITIONAL_REPRESENTATION('',(#775),#778);
#775 = B_SPLINE_CURVE_WITH_KNOTS('',1,(#776,#777),.UNSPECIFIED.,.F.,.F.,
  (2,2),(4.712388980385,6.28318530718),.PIECEWISE_BEZIER_KNOTS.);
#776 = CARTESIAN_POINT('',(-1.570796326795,251.));
#777 = CARTESIAN_POINT('',(0.,251.));
#778 = ( GEOMETRIC_REPRESENTATION_CONTEXT(2) 
PARAMETRIC_REPRESENTATION_CONTEXT() REPRESENTATION_CONTEXT('2D SPACE',''
  ) );
#779 = PCURVE('',#715,#780);
#780 = DEFINITIONAL_REPRESENTATION('',(#781),#784);
#781 = B_SPLINE_CURVE_WITH_KNOTS('',1,(#782,#783),.UNSPECIFIED.,.F.,.F.,
  (2,2),(4.712388980385,6.28318530718),.PIECEWISE_BEZIER_KNOTS.);
#782 = CARTESIAN_POINT('',(1.570796326795,-1.570796326795));
#783 = CARTESIAN_POINT('',(1.570796326795,0.));
#784 = ( GEOMETRIC_REPRESENTATION_CONTEXT(2) 
PARAMETRIC_REPRESENTATION_CONTEXT() REPRESENTATION_CONTEXT('2D SPACE',''
  ) );
#785 = ORIENTED_EDGE('',*,*,#733,.T.);
#786 = ADVANCED_FACE('',(#787),#280,.T.);
#787 = FACE_BOUND('',#788,.T.);
#788 = EDGE_LOOP('',(#789,#813,#834,#835,#836,#865));
#789 = ORIENTED_EDGE('',*,*,#790,.F.);
#790 = EDGE_CURVE('',#791,#793,#795,.T.);
#791 = VERTEX_POINT('',#792);
#792 = CARTESIAN_POINT('',(234.5,80.5,112.));
#793 = VERTEX_POINT('',#794);
#794 = CARTESIAN_POINT('',(242.73205080756,88.732050807569,
    120.23205080756));
#795 = SURFACE_CURVE('',#796,(#799,#806),.PCURVE_S1.);
#796 = B_SPLINE_CURVE_WITH_KNOTS('',1,(#797,#798),.UNSPECIFIED.,.F.,.F.,
  (2,2),(0.,1.),.PIECEWISE_BEZIER_KNOTS.);
#797 = CARTESIAN_POINT('',(204.,50.,81.5));
#798 = CARTESIAN_POINT('',(246.,92.,123.5));
#799 = PCURVE('',#280,#800);
#800 = DEFINITIONAL_REPRESENTATION('',(#801),#805);
#801 = LINE('',#802,#803);
#802 = CARTESIAN_POINT('',(0.,0.));
#803 = VECTOR('',#804,1.);
#804 = DIRECTION('',(0.,1.));
#805 = ( GEOMETRIC_REPRESENTATION_CONTEXT(2) 
PARAMETRIC_REPRESENTATION_CONTEXT() REPRESENTATION_CONTEXT('2D SPACE',''
  ) );
#806 = PCURVE('',#675,#807);
#807 = DEFINITIONAL_REPRESENTATION('',(#808),#812);
#808 = LINE('',#809,#810);
#809 = CARTESIAN_POINT('',(104.,0.));
#810 = VECTOR('',#811,1.);
#811 = DIRECTION('',(0.,1.));
#812 = ( GEOMETRIC_REPRESENTATION_CONTEXT(2) 
PARAMETRIC_REPRESENTATION_CONTEXT() REPRESENTATION_CONTEXT('2D SPACE',''
  ) );
#813 = ORIENTED_EDGE('',*,*,#814,.F.);
#814 = EDGE_CURVE('',#264,#791,#815,.T.);
#815 = SURFACE_CURVE('',#816,(#820,#827),.PCURVE_S1.);
#816 = LINE('',#817,#818);
#817 = CARTESIAN_POINT('',(-0.5,80.5,112.));
#818 = VECTOR('',#819,1.);
#819 = DIRECTION('',(1.,0.,0.));
#820 = PCURVE('',#280,#821);
#821 = DEFINITIONAL_REPRESENTATION('',(#822),#826);
#822 = B_SPLINE_CURVE_WITH_KNOTS('',2,(#823,#824,#825),.UNSPECIFIED.,.F.
  ,.F.,(3,3),(0.,235.),.PIECEWISE_BEZIER_KNOTS.);
#823 = CARTESIAN_POINT('',(258.,0.72619047619));
#824 = CARTESIAN_POINT('',(129.,0.72619047619));
#825 = CARTESIAN_POINT('',(0.,0.72619047619));
#826 = ( GEOMETRIC_REPRESENTATION_CONTEXT(2) 
PARAMETRIC_REPRESENTATION_CONTEXT() REPRESENTATION_CONTEXT('2D SPACE',''
  ) );
#827 = PCURVE('',#308,#828);
#828 = DEFINITIONAL_REPRESENTATION('',(#829),#833);
#829 = LINE('',#830,#831);
#830 = CARTESIAN_POINT('',(0.,81.));
#831 = VECTOR('',#832,1.);
#832 = DIRECTION('',(1.,0.));
#833 = ( GEOMETRIC_REPRESENTATION_CONTEXT(2) 
PARAMETRIC_REPRESENTATION_CONTEXT() REPRESENTATION_CONTEXT('2D SPACE',''
  ) );
#834 = ORIENTED_EDGE('',*,*,#263,.T.);
#835 = ORIENTED_EDGE('',*,*,#384,.F.);
#836 = ORIENTED_EDGE('',*,*,#837,.T.);
#837 = EDGE_CURVE('',#385,#838,#840,.T.);
#838 = VERTEX_POINT('',#839);
#839 = CARTESIAN_POINT('',(241.,89.12132034356,120.62132034356));
#840 = SURFACE_CURVE('',#841,(#847,#856),.PCURVE_S1.);
#841 = B_SPLINE_CURVE_WITH_KNOTS('',4,(#842,#843,#844,#845,#846),
  .UNSPECIFIED.,.F.,.F.,(5,5),(0.,1.),.PIECEWISE_BEZIER_KNOTS.);
#842 = CARTESIAN_POINT('',(-7.0000006,89.12132034356,120.62132034356));
#843 = CARTESIAN_POINT('',(54.999999700001,89.12132034356,
    120.62132034356));
#844 = CARTESIAN_POINT('',(116.99999999999,89.12132034356,
    120.62132034356));
#845 = CARTESIAN_POINT('',(179.0000003,89.12132034356,120.62132034356));
#846 = CARTESIAN_POINT('',(241.0000006,89.12132034356,120.62132034356));
#847 = PCURVE('',#280,#848);
#848 = DEFINITIONAL_REPRESENTATION('',(#849),#855);
#849 = B_SPLINE_CURVE_WITH_KNOTS('',4,(#850,#851,#852,#853,#854),
  .UNSPECIFIED.,.F.,.F.,(5,5),(0.,1.),.PIECEWISE_BEZIER_KNOTS.);
#850 = CARTESIAN_POINT('',(255.83026179734,0.93146000818));
#851 = CARTESIAN_POINT('',(192.41513089867,0.93146000818));
#852 = CARTESIAN_POINT('',(129.,0.93146000818));
#853 = CARTESIAN_POINT('',(65.584869101329,0.93146000818));
#854 = CARTESIAN_POINT('',(2.169738202659,0.93146000818));
#855 = ( GEOMETRIC_REPRESENTATION_CONTEXT(2) 
PARAMETRIC_REPRESENTATION_CONTEXT() REPRESENTATION_CONTEXT('2D SPACE',''
  ) );
#856 = PCURVE('',#439,#857);
#857 = DEFINITIONAL_REPRESENTATION('',(#858),#864);
#858 = B_SPLINE_CURVE_WITH_KNOTS('',4,(#859,#860,#861,#862,#863),
  .UNSPECIFIED.,.F.,.F.,(5,5),(0.,1.),.PIECEWISE_BEZIER_KNOTS.);
#859 = CARTESIAN_POINT('',(0.785398163397,2.9999994));
#860 = CARTESIAN_POINT('',(0.785398163397,64.999999700001));
#861 = CARTESIAN_POINT('',(0.785398163397,126.99999999999));
#862 = CARTESIAN_POINT('',(0.785398163397,189.0000003));
#863 = CARTESIAN_POINT('',(0.785398163397,251.0000006));
#864 = ( GEOMETRIC_REPRESENTATION_CONTEXT(2) 
PARAMETRIC_REPRESENTATION_CONTEXT() REPRESENTATION_CONTEXT('2D SPACE',''
  ) );
#865 = ORIENTED_EDGE('',*,*,#866,.F.);
#866 = EDGE_CURVE('',#793,#838,#867,.T.);
#867 = SURFACE_CURVE('',#868,(#878,#891),.PCURVE_S1.);
#868 = B_SPLINE_CURVE_WITH_KNOTS('',8,(#869,#870,#871,#872,#873,#874,
    #875,#876,#877),.UNSPECIFIED.,.F.,.F.,(9,9),(0.,1.),
  .PIECEWISE_BEZIER_KNOTS.);
#869 = CARTESIAN_POINT('',(242.73205080756,88.732050807569,
    120.23205080756));
#870 = CARTESIAN_POINT('',(242.548979902,88.823586260352,120.32358626035
    ));
#871 = CARTESIAN_POINT('',(242.35513450471,88.903923217432,
    120.40392321743));
#872 = CARTESIAN_POINT('',(242.15116168719,88.972828854908,
    120.4728288549));
#873 = CARTESIAN_POINT('',(241.9376609515,89.029793597817,
    120.52979359781));
#874 = CARTESIAN_POINT('',(241.71526588429,89.074143217021,
    120.57414321702));
#875 = CARTESIAN_POINT('',(241.48456970173,89.105009864586,
    120.60500986458));
#876 = CARTESIAN_POINT('',(241.24607009897,89.12132034356,
    120.62132034356));
#877 = CARTESIAN_POINT('',(241.,89.12132034356,120.62132034356));
#878 = PCURVE('',#280,#879);
#879 = DEFINITIONAL_REPRESENTATION('',(#880),#890);
#880 = B_SPLINE_CURVE_WITH_KNOTS('',8,(#881,#882,#883,#884,#885,#886,
    #887,#888,#889),.UNSPECIFIED.,.F.,.F.,(9,9),(0.,1.),
  .PIECEWISE_BEZIER_KNOTS.);
#881 = CARTESIAN_POINT('',(0.,0.922191685894));
#882 = CARTESIAN_POINT('',(0.281743755863,0.924371101437));
#883 = CARTESIAN_POINT('',(0.562583654878,0.926283886129));
#884 = CARTESIAN_POINT('',(0.841719921648,0.927924496545));
#885 = CARTESIAN_POINT('',(1.118123902855,0.929280799948));
#886 = CARTESIAN_POINT('',(1.390574704002,0.930336743262));
#887 = CARTESIAN_POINT('',(1.657706800268,0.931071663443));
#888 = CARTESIAN_POINT('',(1.918052244403,0.93146000818));
#889 = CARTESIAN_POINT('',(2.169738816354,0.93146000818));
#890 = ( GEOMETRIC_REPRESENTATION_CONTEXT(2) 
PARAMETRIC_REPRESENTATION_CONTEXT() REPRESENTATION_CONTEXT('2D SPACE',''
  ) );
#891 = PCURVE('',#892,#897);
#892 = SPHERICAL_SURFACE('',#893,3.);
#893 = AXIS2_PLACEMENT_3D('',#894,#895,#896);
#894 = CARTESIAN_POINT('',(241.,87.,118.5));
#895 = DIRECTION('',(-0.,-1.,-0.));
#896 = DIRECTION('',(1.,-0.,0.));
#897 = DEFINITIONAL_REPRESENTATION('',(#898),#908);
#898 = B_SPLINE_CURVE_WITH_KNOTS('',8,(#899,#900,#901,#902,#903,#904,
    #905,#906,#907),.UNSPECIFIED.,.F.,.F.,(9,9),(0.,1.),
  .PIECEWISE_BEZIER_KNOTS.);
#899 = CARTESIAN_POINT('',(0.785398163397,-0.61547970867));
#900 = CARTESIAN_POINT('',(0.864670190854,-0.652848900786));
#901 = CARTESIAN_POINT('',(0.948607361246,-0.686774766623));
#902 = CARTESIAN_POINT('',(1.037944306635,-0.71687841425));
#903 = CARTESIAN_POINT('',(1.133239418841,-0.742582749151));
#904 = CARTESIAN_POINT('',(1.234801914278,-0.763158615737));
#905 = CARTESIAN_POINT('',(1.342368806936,-0.77770935652));
#906 = CARTESIAN_POINT('',(1.454797769709,-0.785398163397));
#907 = CARTESIAN_POINT('',(1.570796326795,-0.785398163397));
#908 = ( GEOMETRIC_REPRESENTATION_CONTEXT(2) 
PARAMETRIC_REPRESENTATION_CONTEXT() REPRESENTATION_CONTEXT('2D SPACE',''
  ) );
#909 = ADVANCED_FACE('',(#910,#936,#966,#1001,#1036,#1071,#1106,#1136),
  #308,.F.);
#910 = FACE_BOUND('',#911,.F.);
#911 = EDGE_LOOP('',(#912,#913,#914,#935));
#912 = ORIENTED_EDGE('',*,*,#292,.F.);
#913 = ORIENTED_EDGE('',*,*,#637,.T.);
#914 = ORIENTED_EDGE('',*,*,#915,.T.);
#915 = EDGE_CURVE('',#638,#791,#916,.T.);
#916 = SURFACE_CURVE('',#917,(#921,#928),.PCURVE_S1.);
#917 = LINE('',#918,#919);
#918 = CARTESIAN_POINT('',(234.5,-0.5,112.));
#919 = VECTOR('',#920,1.);
#920 = DIRECTION('',(0.,1.,0.));
#921 = PCURVE('',#308,#922);
#922 = DEFINITIONAL_REPRESENTATION('',(#923),#927);
#923 = LINE('',#924,#925);
#924 = CARTESIAN_POINT('',(235.,0.));
#925 = VECTOR('',#926,1.);
#926 = DIRECTION('',(0.,1.));
#927 = ( GEOMETRIC_REPRESENTATION_CONTEXT(2) 
PARAMETRIC_REPRESENTATION_CONTEXT() REPRESENTATION_CONTEXT('2D SPACE',''
  ) );
#928 = PCURVE('',#675,#929);
#929 = DEFINITIONAL_REPRESENTATION('',(#930),#934);
#930 = B_SPLINE_CURVE_WITH_KNOTS('',2,(#931,#932,#933),.UNSPECIFIED.,.F.
  ,.F.,(3,3),(0.,81.),.PIECEWISE_BEZIER_KNOTS.);
#931 = CARTESIAN_POINT('',(0.,0.72619047619));
#932 = CARTESIAN_POINT('',(52.,0.72619047619));
#933 = CARTESIAN_POINT('',(104.,0.72619047619));
#934 = ( GEOMETRIC_REPRESENTATION_CONTEXT(2) 
PARAMETRIC_REPRESENTATION_CONTEXT() REPRESENTATION_CONTEXT('2D SPACE',''
  ) );
#935 = ORIENTED_EDGE('',*,*,#814,.F.);
#936 = FACE_BOUND('',#937,.F.);
#937 = EDGE_LOOP('',(#938));
#938 = ORIENTED_EDGE('',*,*,#939,.T.);
#939 = EDGE_CURVE('',#940,#940,#942,.T.);
#940 = VERTEX_POINT('',#941);
#941 = CARTESIAN_POINT('',(222.,24.,112.));
#942 = SURFACE_CURVE('',#943,(#948,#959),.PCURVE_S1.);
#943 = CIRCLE('',#944,4.);
#944 = AXIS2_PLACEMENT_3D('',#945,#946,#947);
#945 = CARTESIAN_POINT('',(218.,24.,112.));
#946 = DIRECTION('',(0.,0.,-1.));
#947 = DIRECTION('',(1.,0.,0.));
#948 = PCURVE('',#308,#949);
#949 = DEFINITIONAL_REPRESENTATION('',(#950),#958);
#950 = ( BOUNDED_CURVE() B_SPLINE_CURVE(2,(#951,#952,#953,#954,#955,#956
,#957),.UNSPECIFIED.,.T.,.F.) B_SPLINE_CURVE_WITH_KNOTS((1,2,2,2,2,1),(
    -2.094395102393,0.,2.094395102393,4.188790204786,6.28318530718,
8.377580409573),.UNSPECIFIED.) CURVE() GEOMETRIC_REPRESENTATION_ITEM() 
RATIONAL_B_SPLINE_CURVE((1.,0.5,1.,0.5,1.,0.5,1.)) REPRESENTATION_ITEM(
  '') );
#951 = CARTESIAN_POINT('',(222.5,24.5));
#952 = CARTESIAN_POINT('',(222.5,17.571796769724));
#953 = CARTESIAN_POINT('',(216.5,21.035898384862));
#954 = CARTESIAN_POINT('',(210.5,24.5));
#955 = CARTESIAN_POINT('',(216.5,27.964101615138));
#956 = CARTESIAN_POINT('',(222.5,31.428203230276));
#957 = CARTESIAN_POINT('',(222.5,24.5));
#958 = ( GEOMETRIC_REPRESENTATION_CONTEXT(2) 
PARAMETRIC_REPRESENTATION_CONTEXT() REPRESENTATION_CONTEXT('2D SPACE',''
  ) );
#959 = PCURVE('',#551,#960);
#960 = DEFINITIONAL_REPRESENTATION('',(#961),#965);
#961 = LINE('',#962,#963);
#962 = CARTESIAN_POINT('',(-6.28318530718,-1.));
#963 = VECTOR('',#964,1.);
#964 = DIRECTION('',(1.,-0.));
#965 = ( GEOMETRIC_REPRESENTATION_CONTEXT(2) 
PARAMETRIC_REPRESENTATION_CONTEXT() REPRESENTATION_CONTEXT('2D SPACE',''
  ) );
#966 = FACE_BOUND('',#967,.F.);
#967 = EDGE_LOOP('',(#968));
#968 = ORIENTED_EDGE('',*,*,#969,.T.);
#969 = EDGE_CURVE('',#970,#970,#972,.T.);
#970 = VERTEX_POINT('',#971);
#971 = CARTESIAN_POINT('',(35.8,40.,112.));
#972 = SURFACE_CURVE('',#973,(#978,#989),.PCURVE_S1.);
#973 = CIRCLE('',#974,0.8);
#974 = AXIS2_PLACEMENT_3D('',#975,#976,#977);
#975 = CARTESIAN_POINT('',(35.,40.,112.));
#976 = DIRECTION('',(0.,0.,-1.));
#977 = DIRECTION('',(1.,0.,0.));
#978 = PCURVE('',#308,#979);
#979 = DEFINITIONAL_REPRESENTATION('',(#980),#988);
#980 = ( BOUNDED_CURVE() B_SPLINE_CURVE(2,(#981,#982,#983,#984,#985,#986
,#987),.UNSPECIFIED.,.T.,.F.) B_SPLINE_CURVE_WITH_KNOTS((1,2,2,2,2,1),(
    -2.094395102393,0.,2.094395102393,4.188790204786,6.28318530718,
8.377580409573),.UNSPECIFIED.) CURVE() GEOMETRIC_REPRESENTATION_ITEM() 
RATIONAL_B_SPLINE_CURVE((1.,0.5,1.,0.5,1.,0.5,1.)) REPRESENTATION_ITEM(
  '') );
#981 = CARTESIAN_POINT('',(36.3,40.5));
#982 = CARTESIAN_POINT('',(36.3,39.114359353945));
#983 = CARTESIAN_POINT('',(35.1,39.807179676972));
#984 = CARTESIAN_POINT('',(33.9,40.5));
#985 = CARTESIAN_POINT('',(35.1,41.192820323028));
#986 = CARTESIAN_POINT('',(36.3,41.885640646055));
#987 = CARTESIAN_POINT('',(36.3,40.5));
#988 = ( GEOMETRIC_REPRESENTATION_CONTEXT(2) 
PARAMETRIC_REPRESENTATION_CONTEXT() REPRESENTATION_CONTEXT('2D SPACE',''
  ) );
#989 = PCURVE('',#990,#995);
#990 = CYLINDRICAL_SURFACE('',#991,0.8);
#991 = AXIS2_PLACEMENT_3D('',#992,#993,#994);
#992 = CARTESIAN_POINT('',(35.,40.,111.99));
#993 = DIRECTION('',(-0.,-0.,-1.));
#994 = DIRECTION('',(1.,0.,0.));
#995 = DEFINITIONAL_REPRESENTATION('',(#996),#1000);
#996 = LINE('',#997,#998);
#997 = CARTESIAN_POINT('',(-6.28318530718,-1.000000000001E-02));
#998 = VECTOR('',#999,1.);
#999 = DIRECTION('',(1.,-0.));
#1000 = ( GEOMETRIC_REPRESENTATION_CONTEXT(2) 
PARAMETRIC_REPRESENTATION_CONTEXT() REPRESENTATION_CONTEXT('2D SPACE',''
  ) );
#1001 = FACE_BOUND('',#1002,.F.);
#1002 = EDGE_LOOP('',(#1003));
#1003 = ORIENTED_EDGE('',*,*,#1004,.T.);
#1004 = EDGE_CURVE('',#1005,#1005,#1007,.T.);
#1005 = VERTEX_POINT('',#1006);
#1006 = CARTESIAN_POINT('',(90.8,40.,112.));
#1007 = SURFACE_CURVE('',#1008,(#1013,#1024),.PCURVE_S1.);
#1008 = CIRCLE('',#1009,0.8);
#1009 = AXIS2_PLACEMENT_3D('',#1010,#1011,#1012);
#1010 = CARTESIAN_POINT('',(90.,40.,112.));
#1011 = DIRECTION('',(0.,0.,-1.));
#1012 = DIRECTION('',(1.,0.,0.));
#1013 = PCURVE('',#308,#1014);
#1014 = DEFINITIONAL_REPRESENTATION('',(#1015),#1023);
#1015 = ( BOUNDED_CURVE() B_SPLINE_CURVE(2,(#1016,#1017,#1018,#1019,
#1020,#1021,#1022),.UNSPECIFIED.,.T.,.F.) B_SPLINE_CURVE_WITH_KNOTS((1,2
    ,2,2,2,1),(-2.094395102393,0.,2.094395102393,4.188790204786,
6.28318530718,8.377580409573),.UNSPECIFIED.) CURVE() 
GEOMETRIC_REPRESENTATION_ITEM() RATIONAL_B_SPLINE_CURVE((1.,0.5,1.,0.5,
1.,0.5,1.)) REPRESENTATION_ITEM('') );
#1016 = CARTESIAN_POINT('',(91.3,40.5));
#1017 = CARTESIAN_POINT('',(91.3,39.114359353945));
#1018 = CARTESIAN_POINT('',(90.1,39.807179676972));
#1019 = CARTESIAN_POINT('',(88.9,40.5));
#1020 = CARTESIAN_POINT('',(90.1,41.192820323028));
#1021 = CARTESIAN_POINT('',(91.3,41.885640646055));
#1022 = CARTESIAN_POINT('',(91.3,40.5));
#1023 = ( GEOMETRIC_REPRESENTATION_CONTEXT(2) 
PARAMETRIC_REPRESENTATION_CONTEXT() REPRESENTATION_CONTEXT('2D SPACE',''
  ) );
#1024 = PCURVE('',#1025,#1030);
#1025 = CYLINDRICAL_SURFACE('',#1026,0.8);
#1026 = AXIS2_PLACEMENT_3D('',#1027,#1028,#1029);
#1027 = CARTESIAN_POINT('',(90.,40.,111.99));
#1028 = DIRECTION('',(-0.,-0.,-1.));
#1029 = DIRECTION('',(1.,0.,0.));
#1030 = DEFINITIONAL_REPRESENTATION('',(#1031),#1035);
#1031 = LINE('',#1032,#1033);
#1032 = CARTESIAN_POINT('',(-6.28318530718,-1.000000000001E-02));
#1033 = VECTOR('',#1034,1.);
#1034 = DIRECTION('',(1.,-0.));
#1035 = ( GEOMETRIC_REPRESENTATION_CONTEXT(2) 
PARAMETRIC_REPRESENTATION_CONTEXT() REPRESENTATION_CONTEXT('2D SPACE',''
  ) );
#1036 = FACE_BOUND('',#1037,.F.);
#1037 = EDGE_LOOP('',(#1038));
#1038 = ORIENTED_EDGE('',*,*,#1039,.T.);
#1039 = EDGE_CURVE('',#1040,#1040,#1042,.T.);
#1040 = VERTEX_POINT('',#1041);
#1041 = CARTESIAN_POINT('',(145.8,40.,112.));
#1042 = SURFACE_CURVE('',#1043,(#1048,#1059),.PCURVE_S1.);
#1043 = CIRCLE('',#1044,0.8);
#1044 = AXIS2_PLACEMENT_3D('',#1045,#1046,#1047);
#1045 = CARTESIAN_POINT('',(145.,40.,112.));
#1046 = DIRECTION('',(0.,0.,-1.));
#1047 = DIRECTION('',(1.,0.,0.));
#1048 = PCURVE('',#308,#1049);
#1049 = DEFINITIONAL_REPRESENTATION('',(#1050),#1058);
#1050 = ( BOUNDED_CURVE() B_SPLINE_CURVE(2,(#1051,#1052,#1053,#1054,
#1055,#1056,#1057),.UNSPECIFIED.,.T.,.F.) B_SPLINE_CURVE_WITH_KNOTS((1,2
    ,2,2,2,1),(-2.094395102393,0.,2.094395102393,4.188790204786,
6.28318530718,8.377580409573),.UNSPECIFIED.) CURVE() 
GEOMETRIC_REPRESENTATION_ITEM() RATIONAL_B_SPLINE_CURVE((1.,0.5,1.,0.5,
1.,0.5,1.)) REPRESENTATION_ITEM('') );
#1051 = CARTESIAN_POINT('',(146.3,40.5));
#1052 = CARTESIAN_POINT('',(146.3,39.114359353945));
#1053 = CARTESIAN_POINT('',(145.1,39.807179676972));
#1054 = CARTESIAN_POINT('',(143.9,40.5));
#1055 = CARTESIAN_POINT('',(145.1,41.192820323028));
#1056 = CARTESIAN_POINT('',(146.3,41.885640646055));
#1057 = CARTESIAN_POINT('',(146.3,40.5));
#1058 = ( GEOMETRIC_REPRESENTATION_CONTEXT(2) 
PARAMETRIC_REPRESENTATION_CONTEXT() REPRESENTATION_CONTEXT('2D SPACE',''
  ) );
#1059 = PCURVE('',#1060,#1065);
#1060 = CYLINDRICAL_SURFACE('',#1061,0.8);
#1061 = AXIS2_PLACEMENT_3D('',#1062,#1063,#1064);
#1062 = CARTESIAN_POINT('',(145.,40.,111.99));
#1063 = DIRECTION('',(-0.,-0.,-1.));
#1064 = DIRECTION('',(1.,0.,0.));
#1065 = DEFINITIONAL_REPRESENTATION('',(#1066),#1070);
#1066 = LINE('',#1067,#1068);
#1067 = CARTESIAN_POINT('',(-6.28318530718,-1.000000000001E-02));
#1068 = VECTOR('',#1069,1.);
#1069 = DIRECTION('',(1.,-0.));
#1070 = ( GEOMETRIC_REPRESENTATION_CONTEXT(2) 
PARAMETRIC_REPRESENTATION_CONTEXT() REPRESENTATION_CONTEXT('2D SPACE',''
  ) );
#1071 = FACE_BOUND('',#1072,.F.);
#1072 = EDGE_LOOP('',(#1073));
#1073 = ORIENTED_EDGE('',*,*,#1074,.T.);
#1074 = EDGE_CURVE('',#1075,#1075,#1077,.T.);
#1075 = VERTEX_POINT('',#1076);
#1076 = CARTESIAN_POINT('',(190.8,40.,112.));
#1077 = SURFACE_CURVE('',#1078,(#1083,#1094),.PCURVE_S1.);
#1078 = CIRCLE('',#1079,0.8);
#1079 = AXIS2_PLACEMENT_3D('',#1080,#1081,#1082);
#1080 = CARTESIAN_POINT('',(190.,40.,112.));
#1081 = DIRECTION('',(0.,0.,-1.));
#1082 = DIRECTION('',(1.,0.,0.));
#1083 = PCURVE('',#308,#1084);
#1084 = DEFINITIONAL_REPRESENTATION('',(#1085),#1093);
#1085 = ( BOUNDED_CURVE() B_SPLINE_CURVE(2,(#1086,#1087,#1088,#1089,
#1090,#1091,#1092),.UNSPECIFIED.,.T.,.F.) B_SPLINE_CURVE_WITH_KNOTS((1,2
    ,2,2,2,1),(-2.094395102393,0.,2.094395102393,4.188790204786,
6.28318530718,8.377580409573),.UNSPECIFIED.) CURVE() 
GEOMETRIC_REPRESENTATION_ITEM() RATIONAL_B_SPLINE_CURVE((1.,0.5,1.,0.5,
1.,0.5,1.)) REPRESENTATION_ITEM('') );
#1086 = CARTESIAN_POINT('',(191.3,40.5));
#1087 = CARTESIAN_POINT('',(191.3,39.114359353945));
#1088 = CARTESIAN_POINT('',(190.1,39.807179676972));
#1089 = CARTESIAN_POINT('',(188.9,40.5));
#1090 = CARTESIAN_POINT('',(190.1,41.192820323028));
#1091 = CARTESIAN_POINT('',(191.3,41.885640646055));
#1092 = CARTESIAN_POINT('',(191.3,40.5));
#1093 = ( GEOMETRIC_REPRESENTATION_CONTEXT(2) 
PARAMETRIC_REPRESENTATION_CONTEXT() REPRESENTATION_CONTEXT('2D SPACE',''
  ) );
#1094 = PCURVE('',#1095,#1100);
#1095 = CYLINDRICAL_SURFACE('',#1096,0.8);
#1096 = AXIS2_PLACEMENT_3D('',#1097,#1098,#1099);
#1097 = CARTESIAN_POINT('',(190.,40.,111.99));
#1098 = DIRECTION('',(-0.,-0.,-1.));
#1099 = DIRECTION('',(1.,0.,0.));
#1100 = DEFINITIONAL_REPRESENTATION('',(#1101),#1105);
#1101 = LINE('',#1102,#1103);
#1102 = CARTESIAN_POINT('',(-6.28318530718,-1.000000000001E-02));
#1103 = VECTOR('',#1104,1.);
#1104 = DIRECTION('',(1.,-0.));
#1105 = ( GEOMETRIC_REPRESENTATION_CONTEXT(2) 
PARAMETRIC_REPRESENTATION_CONTEXT() REPRESENTATION_CONTEXT('2D SPACE',''
  ) );
#1106 = FACE_BOUND('',#1107,.F.);
#1107 = EDGE_LOOP('',(#1108));
#1108 = ORIENTED_EDGE('',*,*,#1109,.T.);
#1109 = EDGE_CURVE('',#1110,#1110,#1112,.T.);
#1110 = VERTEX_POINT('',#1111);
#1111 = CARTESIAN_POINT('',(222.,38.,112.));
#1112 = SURFACE_CURVE('',#1113,(#1118,#1129),.PCURVE_S1.);
#1113 = CIRCLE('',#1114,4.);
#1114 = AXIS2_PLACEMENT_3D('',#1115,#1116,#1117);
#1115 = CARTESIAN_POINT('',(218.,38.,112.));
#1116 = DIRECTION('',(0.,0.,-1.));
#1117 = DIRECTION('',(1.,0.,0.));
#1118 = PCURVE('',#308,#1119);
#1119 = DEFINITIONAL_REPRESENTATION('',(#1120),#1128);
#1120 = ( BOUNDED_CURVE() B_SPLINE_CURVE(2,(#1121,#1122,#1123,#1124,
#1125,#1126,#1127),.UNSPECIFIED.,.T.,.F.) B_SPLINE_CURVE_WITH_KNOTS((1,2
    ,2,2,2,1),(-2.094395102393,0.,2.094395102393,4.188790204786,
6.28318530718,8.377580409573),.UNSPECIFIED.) CURVE() 
GEOMETRIC_REPRESENTATION_ITEM() RATIONAL_B_SPLINE_CURVE((1.,0.5,1.,0.5,
1.,0.5,1.)) REPRESENTATION_ITEM('') );
#1121 = CARTESIAN_POINT('',(222.5,38.5));
#1122 = CARTESIAN_POINT('',(222.5,31.571796769724));
#1123 = CARTESIAN_POINT('',(216.5,35.035898384862));
#1124 = CARTESIAN_POINT('',(210.5,38.5));
#1125 = CARTESIAN_POINT('',(216.5,41.964101615138));
#1126 = CARTESIAN_POINT('',(222.5,45.428203230276));
#1127 = CARTESIAN_POINT('',(222.5,38.5));
#1128 = ( GEOMETRIC_REPRESENTATION_CONTEXT(2) 
PARAMETRIC_REPRESENTATION_CONTEXT() REPRESENTATION_CONTEXT('2D SPACE',''
  ) );
#1129 = PCURVE('',#586,#1130);
#1130 = DEFINITIONAL_REPRESENTATION('',(#1131),#1135);
#1131 = LINE('',#1132,#1133);
#1132 = CARTESIAN_POINT('',(-6.28318530718,-1.));
#1133 = VECTOR('',#1134,1.);
#1134 = DIRECTION('',(1.,-0.));
#1135 = ( GEOMETRIC_REPRESENTATION_CONTEXT(2) 
PARAMETRIC_REPRESENTATION_CONTEXT() REPRESENTATION_CONTEXT('2D SPACE',''
  ) );
#1136 = FACE_BOUND('',#1137,.F.);
#1137 = EDGE_LOOP('',(#1138));
#1138 = ORIENTED_EDGE('',*,*,#1139,.T.);
#1139 = EDGE_CURVE('',#1140,#1140,#1142,.T.);
#1140 = VERTEX_POINT('',#1141);
#1141 = CARTESIAN_POINT('',(222.,52.,112.));
#1142 = SURFACE_CURVE('',#1143,(#1148,#1159),.PCURVE_S1.);
#1143 = CIRCLE('',#1144,4.);
#1144 = AXIS2_PLACEMENT_3D('',#1145,#1146,#1147);
#1145 = CARTESIAN_POINT('',(218.,52.,112.));
#1146 = DIRECTION('',(0.,0.,-1.));
#1147 = DIRECTION('',(1.,0.,0.));
#1148 = PCURVE('',#308,#1149);
#1149 = DEFINITIONAL_REPRESENTATION('',(#1150),#1158);
#1150 = ( BOUNDED_CURVE() B_SPLINE_CURVE(2,(#1151,#1152,#1153,#1154,
#1155,#1156,#1157),.UNSPECIFIED.,.T.,.F.) B_SPLINE_CURVE_WITH_KNOTS((1,2
    ,2,2,2,1),(-2.094395102393,0.,2.094395102393,4.188790204786,
6.28318530718,8.377580409573),.UNSPECIFIED.) CURVE() 
GEOMETRIC_REPRESENTATION_ITEM() RATIONAL_B_SPLINE_CURVE((1.,0.5,1.,0.5,
1.,0.5,1.)) REPRESENTATION_ITEM('') );
#1151 = CARTESIAN_POINT('',(222.5,52.5));
#1152 = CARTESIAN_POINT('',(222.5,45.571796769724));
#1153 = CARTESIAN_POINT('',(216.5,49.035898384862));
#1154 = CARTESIAN_POINT('',(210.5,52.5));
#1155 = CARTESIAN_POINT('',(216.5,55.964101615138));
#1156 = CARTESIAN_POINT('',(222.5,59.428203230276));
#1157 = CARTESIAN_POINT('',(222.5,52.5));
#1158 = ( GEOMETRIC_REPRESENTATION_CONTEXT(2) 
PARAMETRIC_REPRESENTATION_CONTEXT() REPRESENTATION_CONTEXT('2D SPACE',''
  ) );
#1159 = PCURVE('',#621,#1160);
#1160 = DEFINITIONAL_REPRESENTATION('',(#1161),#1165);
#1161 = LINE('',#1162,#1163);
#1162 = CARTESIAN_POINT('',(-6.28318530718,-1.));
#1163 = VECTOR('',#1164,1.);
#1164 = DIRECTION('',(1.,-0.));
#1165 = ( GEOMETRIC_REPRESENTATION_CONTEXT(2) 
PARAMETRIC_REPRESENTATION_CONTEXT() REPRESENTATION_CONTEXT('2D SPACE',''
  ) );
#1166 = ADVANCED_FACE('',(#1167),#439,.T.);
#1167 = FACE_BOUND('',#1168,.T.);
#1168 = EDGE_LOOP('',(#1169,#1170,#1171,#1172));
#1169 = ORIENTED_EDGE('',*,*,#837,.F.);
#1170 = ORIENTED_EDGE('',*,*,#425,.T.);
#1171 = ORIENTED_EDGE('',*,*,#507,.T.);
#1172 = ORIENTED_EDGE('',*,*,#1173,.F.);
#1173 = EDGE_CURVE('',#838,#480,#1174,.T.);
#1174 = SURFACE_CURVE('',#1175,(#1180,#1186),.PCURVE_S1.);
#1175 = CIRCLE('',#1176,3.);
#1176 = AXIS2_PLACEMENT_3D('',#1177,#1178,#1179);
#1177 = CARTESIAN_POINT('',(241.,87.,118.5));
#1178 = DIRECTION('',(1.,0.,-6.123233995737E-17));
#1179 = DIRECTION('',(6.123233995737E-17,0.,1.));
#1180 = PCURVE('',#439,#1181);
#1181 = DEFINITIONAL_REPRESENTATION('',(#1182),#1185);
#1182 = B_SPLINE_CURVE_WITH_KNOTS('',1,(#1183,#1184),.UNSPECIFIED.,.F.,
  .F.,(2,2),(4.712388980385,6.28318530718),.PIECEWISE_BEZIER_KNOTS.);
#1183 = CARTESIAN_POINT('',(0.,251.));
#1184 = CARTESIAN_POINT('',(1.570796326795,251.));
#1185 = ( GEOMETRIC_REPRESENTATION_CONTEXT(2) 
PARAMETRIC_REPRESENTATION_CONTEXT() REPRESENTATION_CONTEXT('2D SPACE',''
  ) );
#1186 = PCURVE('',#892,#1187);
#1187 = DEFINITIONAL_REPRESENTATION('',(#1188),#1191);
#1188 = B_SPLINE_CURVE_WITH_KNOTS('',1,(#1189,#1190),.UNSPECIFIED.,.F.,
  .F.,(2,2),(4.712388980385,6.28318530718),.PIECEWISE_BEZIER_KNOTS.);
#1189 = CARTESIAN_POINT('',(1.570796326795,-1.570796326795));
#1190 = CARTESIAN_POINT('',(1.570796326795,0.));
#1191 = ( GEOMETRIC_REPRESENTATION_CONTEXT(2) 
PARAMETRIC_REPRESENTATION_CONTEXT() REPRESENTATION_CONTEXT('2D SPACE',''
  ) );
#1192 = ADVANCED_FACE('',(#1193),#495,.T.);
#1193 = FACE_BOUND('',#1194,.F.);
#1194 = EDGE_LOOP('',(#1195,#1217,#1218,#1242));
#1195 = ORIENTED_EDGE('',*,*,#1196,.F.);
#1196 = EDGE_CURVE('',#457,#1197,#1199,.T.);
#1197 = VERTEX_POINT('',#1198);
#1198 = CARTESIAN_POINT('',(243.12132034356,-7.,120.62132034356));
#1199 = SURFACE_CURVE('',#1200,(#1205,#1211),.PCURVE_S1.);
#1200 = CIRCLE('',#1201,3.);
#1201 = AXIS2_PLACEMENT_3D('',#1202,#1203,#1204);
#1202 = CARTESIAN_POINT('',(241.,-7.,118.5));
#1203 = DIRECTION('',(-0.,1.,0.));
#1204 = DIRECTION('',(1.,0.,0.));
#1205 = PCURVE('',#495,#1206);
#1206 = DEFINITIONAL_REPRESENTATION('',(#1207),#1210);
#1207 = B_SPLINE_CURVE_WITH_KNOTS('',1,(#1208,#1209),.UNSPECIFIED.,.F.,
  .F.,(2,2),(4.712388980385,6.28318530718),.PIECEWISE_BEZIER_KNOTS.);
#1208 = CARTESIAN_POINT('',(-1.570796326795,3.));
#1209 = CARTESIAN_POINT('',(0.,3.));
#1210 = ( GEOMETRIC_REPRESENTATION_CONTEXT(2) 
PARAMETRIC_REPRESENTATION_CONTEXT() REPRESENTATION_CONTEXT('2D SPACE',''
  ) );
#1211 = PCURVE('',#715,#1212);
#1212 = DEFINITIONAL_REPRESENTATION('',(#1213),#1216);
#1213 = B_SPLINE_CURVE_WITH_KNOTS('',1,(#1214,#1215),.UNSPECIFIED.,.F.,
  .F.,(2,2),(4.712388980385,6.28318530718),.PIECEWISE_BEZIER_KNOTS.);
#1214 = CARTESIAN_POINT('',(0.,-1.570796326795));
#1215 = CARTESIAN_POINT('',(0.,0.));
#1216 = ( GEOMETRIC_REPRESENTATION_CONTEXT(2) 
PARAMETRIC_REPRESENTATION_CONTEXT() REPRESENTATION_CONTEXT('2D SPACE',''
  ) );
#1217 = ORIENTED_EDGE('',*,*,#479,.T.);
#1218 = ORIENTED_EDGE('',*,*,#1219,.F.);
#1219 = EDGE_CURVE('',#1220,#480,#1222,.T.);
#1220 = VERTEX_POINT('',#1221);
#1221 = CARTESIAN_POINT('',(243.12132034356,87.,120.62132034356));
#1222 = SURFACE_CURVE('',#1223,(#1228,#1235),.PCURVE_S1.);
#1223 = CIRCLE('',#1224,3.);
#1224 = AXIS2_PLACEMENT_3D('',#1225,#1226,#1227);
#1225 = CARTESIAN_POINT('',(241.,87.,118.5));
#1226 = DIRECTION('',(-0.,-1.,0.));
#1227 = DIRECTION('',(1.,-0.,0.));
#1228 = PCURVE('',#495,#1229);
#1229 = DEFINITIONAL_REPRESENTATION('',(#1230),#1234);
#1230 = LINE('',#1231,#1232);
#1231 = CARTESIAN_POINT('',(-0.,97.));
#1232 = VECTOR('',#1233,1.);
#1233 = DIRECTION('',(-1.,0.));
#1234 = ( GEOMETRIC_REPRESENTATION_CONTEXT(2) 
PARAMETRIC_REPRESENTATION_CONTEXT() REPRESENTATION_CONTEXT('2D SPACE',''
  ) );
#1235 = PCURVE('',#892,#1236);
#1236 = DEFINITIONAL_REPRESENTATION('',(#1237),#1241);
#1237 = LINE('',#1238,#1239);
#1238 = CARTESIAN_POINT('',(0.,0.));
#1239 = VECTOR('',#1240,1.);
#1240 = DIRECTION('',(1.,0.));
#1241 = ( GEOMETRIC_REPRESENTATION_CONTEXT(2) 
PARAMETRIC_REPRESENTATION_CONTEXT() REPRESENTATION_CONTEXT('2D SPACE',''
  ) );
#1242 = ORIENTED_EDGE('',*,*,#1243,.T.);
#1243 = EDGE_CURVE('',#1220,#1197,#1244,.T.);
#1244 = SURFACE_CURVE('',#1245,(#1251,#1260),.PCURVE_S1.);
#1245 = B_SPLINE_CURVE_WITH_KNOTS('',4,(#1246,#1247,#1248,#1249,#1250),
  .UNSPECIFIED.,.F.,.F.,(5,5),(0.,1.),.PIECEWISE_BEZIER_KNOTS.);
#1246 = CARTESIAN_POINT('',(243.12132034356,87.0000006,120.62132034356)
  );
#1247 = CARTESIAN_POINT('',(243.12132034356,63.5000003,120.62132034356)
  );
#1248 = CARTESIAN_POINT('',(243.12132034356,40.,120.62132034356));
#1249 = CARTESIAN_POINT('',(243.12132034356,16.4999997,120.62132034356)
  );
#1250 = CARTESIAN_POINT('',(243.12132034356,-7.0000006,120.62132034356)
  );
#1251 = PCURVE('',#495,#1252);
#1252 = DEFINITIONAL_REPRESENTATION('',(#1253),#1259);
#1253 = B_SPLINE_CURVE_WITH_KNOTS('',4,(#1254,#1255,#1256,#1257,#1258),
  .UNSPECIFIED.,.F.,.F.,(5,5),(0.,1.),.PIECEWISE_BEZIER_KNOTS.);
#1254 = CARTESIAN_POINT('',(-0.785398163397,97.0000006));
#1255 = CARTESIAN_POINT('',(-0.785398163397,73.5000003));
#1256 = CARTESIAN_POINT('',(-0.785398163397,50.));
#1257 = CARTESIAN_POINT('',(-0.785398163397,26.4999997));
#1258 = CARTESIAN_POINT('',(-0.785398163397,2.9999994));
#1259 = ( GEOMETRIC_REPRESENTATION_CONTEXT(2) 
PARAMETRIC_REPRESENTATION_CONTEXT() REPRESENTATION_CONTEXT('2D SPACE',''
  ) );
#1260 = PCURVE('',#675,#1261);
#1261 = DEFINITIONAL_REPRESENTATION('',(#1262),#1268);
#1262 = B_SPLINE_CURVE_WITH_KNOTS('',4,(#1263,#1264,#1265,#1266,#1267),
  .UNSPECIFIED.,.F.,.F.,(5,5),(0.,1.),.PIECEWISE_BEZIER_KNOTS.);
#1263 = CARTESIAN_POINT('',(101.75436356568,0.93146000818));
#1264 = CARTESIAN_POINT('',(76.877181782843,0.93146000818));
#1265 = CARTESIAN_POINT('',(52.,0.93146000818));
#1266 = CARTESIAN_POINT('',(27.122818217157,0.93146000818));
#1267 = CARTESIAN_POINT('',(2.245636434314,0.93146000818));
#1268 = ( GEOMETRIC_REPRESENTATION_CONTEXT(2) 
PARAMETRIC_REPRESENTATION_CONTEXT() REPRESENTATION_CONTEXT('2D SPACE',''
  ) );
#1269 = ADVANCED_FACE('',(#1270),#551,.F.);
#1270 = FACE_BOUND('',#1271,.T.);
#1271 = EDGE_LOOP('',(#1272,#1273,#1294,#1295));
#1272 = ORIENTED_EDGE('',*,*,#939,.T.);
#1273 = ORIENTED_EDGE('',*,*,#1274,.T.);
#1274 = EDGE_CURVE('',#940,#531,#1275,.T.);
#1275 = SEAM_CURVE('',#1276,(#1280,#1287),.PCURVE_S1.);
#1276 = LINE('',#1277,#1278);
#1277 = CARTESIAN_POINT('',(222.,24.,111.));
#1278 = VECTOR('',#1279,1.);
#1279 = DIRECTION('',(0.,0.,1.));
#1280 = PCURVE('',#551,#1281);
#1281 = DEFINITIONAL_REPRESENTATION('',(#1282),#1286);
#1282 = LINE('',#1283,#1284);
#1283 = CARTESIAN_POINT('',(-6.28318530718,0.));
#1284 = VECTOR('',#1285,1.);
#1285 = DIRECTION('',(-0.,-1.));
#1286 = ( GEOMETRIC_REPRESENTATION_CONTEXT(2) 
PARAMETRIC_REPRESENTATION_CONTEXT() REPRESENTATION_CONTEXT('2D SPACE',''
  ) );
#1287 = PCURVE('',#551,#1288);
#1288 = DEFINITIONAL_REPRESENTATION('',(#1289),#1293);
#1289 = LINE('',#1290,#1291);
#1290 = CARTESIAN_POINT('',(-0.,0.));
#1291 = VECTOR('',#1292,1.);
#1292 = DIRECTION('',(-0.,-1.));
#1293 = ( GEOMETRIC_REPRESENTATION_CONTEXT(2) 
PARAMETRIC_REPRESENTATION_CONTEXT() REPRESENTATION_CONTEXT('2D SPACE',''
  ) );
#1294 = ORIENTED_EDGE('',*,*,#530,.F.);
#1295 = ORIENTED_EDGE('',*,*,#1274,.F.);
#1296 = ADVANCED_FACE('',(#1297),#586,.F.);
#1297 = FACE_BOUND('',#1298,.T.);
#1298 = EDGE_LOOP('',(#1299,#1300,#1321,#1322));
#1299 = ORIENTED_EDGE('',*,*,#1109,.T.);
#1300 = ORIENTED_EDGE('',*,*,#1301,.T.);
#1301 = EDGE_CURVE('',#1110,#566,#1302,.T.);
#1302 = SEAM_CURVE('',#1303,(#1307,#1314),.PCURVE_S1.);
#1303 = LINE('',#1304,#1305);
#1304 = CARTESIAN_POINT('',(222.,38.,111.));
#1305 = VECTOR('',#1306,1.);
#1306 = DIRECTION('',(0.,0.,1.));
#1307 = PCURVE('',#586,#1308);
#1308 = DEFINITIONAL_REPRESENTATION('',(#1309),#1313);
#1309 = LINE('',#1310,#1311);
#1310 = CARTESIAN_POINT('',(-6.28318530718,0.));
#1311 = VECTOR('',#1312,1.);
#1312 = DIRECTION('',(-0.,-1.));
#1313 = ( GEOMETRIC_REPRESENTATION_CONTEXT(2) 
PARAMETRIC_REPRESENTATION_CONTEXT() REPRESENTATION_CONTEXT('2D SPACE',''
  ) );
#1314 = PCURVE('',#586,#1315);
#1315 = DEFINITIONAL_REPRESENTATION('',(#1316),#1320);
#1316 = LINE('',#1317,#1318);
#1317 = CARTESIAN_POINT('',(-0.,0.));
#1318 = VECTOR('',#1319,1.);
#1319 = DIRECTION('',(-0.,-1.));
#1320 = ( GEOMETRIC_REPRESENTATION_CONTEXT(2) 
PARAMETRIC_REPRESENTATION_CONTEXT() REPRESENTATION_CONTEXT('2D SPACE',''
  ) );
#1321 = ORIENTED_EDGE('',*,*,#565,.F.);
#1322 = ORIENTED_EDGE('',*,*,#1301,.F.);
#1323 = ADVANCED_FACE('',(#1324),#621,.F.);
#1324 = FACE_BOUND('',#1325,.T.);
#1325 = EDGE_LOOP('',(#1326,#1327,#1348,#1349));
#1326 = ORIENTED_EDGE('',*,*,#1139,.T.);
#1327 = ORIENTED_EDGE('',*,*,#1328,.T.);
#1328 = EDGE_CURVE('',#1140,#601,#1329,.T.);
#1329 = SEAM_CURVE('',#1330,(#1334,#1341),.PCURVE_S1.);
#1330 = LINE('',#1331,#1332);
#1331 = CARTESIAN_POINT('',(222.,52.,111.));
#1332 = VECTOR('',#1333,1.);
#1333 = DIRECTION('',(0.,0.,1.));
#1334 = PCURVE('',#621,#1335);
#1335 = DEFINITIONAL_REPRESENTATION('',(#1336),#1340);
#1336 = LINE('',#1337,#1338);
#1337 = CARTESIAN_POINT('',(-6.28318530718,0.));
#1338 = VECTOR('',#1339,1.);
#1339 = DIRECTION('',(-0.,-1.));
#1340 = ( GEOMETRIC_REPRESENTATION_CONTEXT(2) 
PARAMETRIC_REPRESENTATION_CONTEXT() REPRESENTATION_CONTEXT('2D SPACE',''
  ) );
#1341 = PCURVE('',#621,#1342);
#1342 = DEFINITIONAL_REPRESENTATION('',(#1343),#1347);
#1343 = LINE('',#1344,#1345);
#1344 = CARTESIAN_POINT('',(-0.,0.));
#1345 = VECTOR('',#1346,1.);
#1346 = DIRECTION('',(-0.,-1.));
#1347 = ( GEOMETRIC_REPRESENTATION_CONTEXT(2) 
PARAMETRIC_REPRESENTATION_CONTEXT() REPRESENTATION_CONTEXT('2D SPACE',''
  ) );
#1348 = ORIENTED_EDGE('',*,*,#600,.F.);
#1349 = ORIENTED_EDGE('',*,*,#1328,.F.);
#1350 = ADVANCED_FACE('',(#1351),#715,.T.);
#1351 = FACE_BOUND('',#1352,.T.);
#1352 = EDGE_LOOP('',(#1353,#1354,#1355,#1356));
#1353 = ORIENTED_EDGE('',*,*,#1196,.F.);
#1354 = ORIENTED_EDGE('',*,*,#766,.T.);
#1355 = ORIENTED_EDGE('',*,*,#687,.T.);
#1356 = ORIENTED_EDGE('',*,*,#1357,.T.);
#1357 = EDGE_CURVE('',#661,#1197,#1358,.T.);
#1358 = SURFACE_CURVE('',#1359,(#1369,#1382),.PCURVE_S1.);
#1359 = B_SPLINE_CURVE_WITH_KNOTS('',8,(#1360,#1361,#1362,#1363,#1364,
    #1365,#1366,#1367,#1368),.UNSPECIFIED.,.F.,.F.,(9,9),(0.,1.),
  .PIECEWISE_BEZIER_KNOTS.);
#1360 = CARTESIAN_POINT('',(242.73205080756,-8.732050807569,
    120.23205080756));
#1361 = CARTESIAN_POINT('',(242.82319768668,-8.549757049332,
    120.32319768668));
#1362 = CARTESIAN_POINT('',(242.90339724827,-8.356467389357,
    120.40339724827));
#1363 = CARTESIAN_POINT('',(242.97232907206,-8.152804926342,
    120.47232907206));
#1364 = CARTESIAN_POINT('',(243.02941482326,-7.939366019103,
    120.52941482326));
#1365 = CARTESIAN_POINT('',(243.07392061693,-7.716798422827,
    120.57392061693));
#1366 = CARTESIAN_POINT('',(243.10492703532,-7.485725887261,
    120.60492703532));
#1367 = CARTESIAN_POINT('',(243.12132034356,-7.246693843271,
    120.62132034356));
#1368 = CARTESIAN_POINT('',(243.12132034356,-7.,120.62132034356));
#1369 = PCURVE('',#715,#1370);
#1370 = DEFINITIONAL_REPRESENTATION('',(#1371),#1381);
#1371 = B_SPLINE_CURVE_WITH_KNOTS('',8,(#1372,#1373,#1374,#1375,#1376,
    #1377,#1378,#1379,#1380),.UNSPECIFIED.,.F.,.F.,(9,9),(0.,1.),
  .PIECEWISE_BEZIER_KNOTS.);
#1372 = CARTESIAN_POINT('',(0.785398163397,-0.61547970867));
#1373 = CARTESIAN_POINT('',(0.706462650605,-0.652690266252));
#1374 = CARTESIAN_POINT('',(0.622766226995,-0.686550462914));
#1375 = CARTESIAN_POINT('',(0.53357602892,-0.716656089504));
#1376 = CARTESIAN_POINT('',(0.438329623409,-0.742407599413));
#1377 = CARTESIAN_POINT('',(0.336707602144,-0.763053674354));
#1378 = CARTESIAN_POINT('',(0.228972643462,-0.77767030928));
#1379 = CARTESIAN_POINT('',(0.116292592969,-0.785398163397));
#1380 = CARTESIAN_POINT('',(0.,-0.785398163397));
#1381 = ( GEOMETRIC_REPRESENTATION_CONTEXT(2) 
PARAMETRIC_REPRESENTATION_CONTEXT() REPRESENTATION_CONTEXT('2D SPACE',''
  ) );
#1382 = PCURVE('',#675,#1383);
#1383 = DEFINITIONAL_REPRESENTATION('',(#1384),#1394);
#1384 = B_SPLINE_CURVE_WITH_KNOTS('',8,(#1385,#1386,#1387,#1388,#1389,
    #1390,#1391,#1392,#1393),.UNSPECIFIED.,.F.,.F.,(9,9),(0.,1.),
  .PIECEWISE_BEZIER_KNOTS.);
#1385 = CARTESIAN_POINT('',(0.,0.922191685894));
#1386 = CARTESIAN_POINT('',(0.291777442295,0.924361849683));
#1387 = CARTESIAN_POINT('',(0.582359348091,0.926271363054));
#1388 = CARTESIAN_POINT('',(0.871009996468,0.927912596954));
#1389 = CARTESIAN_POINT('',(1.156765364394,0.929271781506));
#1390 = CARTESIAN_POINT('',(1.438472582274,0.93033144326));
#1391 = CARTESIAN_POINT('',(1.714841385197,0.931069691317));
#1392 = CARTESIAN_POINT('',(1.984486111798,0.93146000818));
#1393 = CARTESIAN_POINT('',(2.245637069476,0.93146000818));
#1394 = ( GEOMETRIC_REPRESENTATION_CONTEXT(2) 
PARAMETRIC_REPRESENTATION_CONTEXT() REPRESENTATION_CONTEXT('2D SPACE',''
  ) );
#1395 = ADVANCED_FACE('',(#1396),#675,.T.);
#1396 = FACE_BOUND('',#1397,.T.);
#1397 = EDGE_LOOP('',(#1398,#1399,#1400,#1401,#1440,#1441));
#1398 = ORIENTED_EDGE('',*,*,#660,.F.);
#1399 = ORIENTED_EDGE('',*,*,#915,.T.);
#1400 = ORIENTED_EDGE('',*,*,#790,.T.);
#1401 = ORIENTED_EDGE('',*,*,#1402,.F.);
#1402 = EDGE_CURVE('',#1220,#793,#1403,.T.);
#1403 = SURFACE_CURVE('',#1404,(#1414,#1427),.PCURVE_S1.);
#1404 = B_SPLINE_CURVE_WITH_KNOTS('',8,(#1405,#1406,#1407,#1408,#1409,
    #1410,#1411,#1412,#1413),.UNSPECIFIED.,.F.,.F.,(9,9),(0.,1.),
  .PIECEWISE_BEZIER_KNOTS.);
#1405 = CARTESIAN_POINT('',(243.12132034356,87.,120.62132034356));
#1406 = CARTESIAN_POINT('',(243.12132034356,87.248839936472,
    120.62132034356));
#1407 = CARTESIAN_POINT('',(243.10464062786,87.489444893026,
    120.60464062786));
#1408 = CARTESIAN_POINT('',(243.07321085921,87.72136913786,
    120.57321085921));
#1409 = CARTESIAN_POINT('',(243.0283163962,87.94400110722,120.5283163962
    ));
#1410 = CARTESIAN_POINT('',(242.97104274911,88.156825168163,
    120.47104274911));
#1411 = CARTESIAN_POINT('',(242.90221258028,88.359377366742,
    120.40221258028));
#1412 = CARTESIAN_POINT('',(242.82244534571,88.551261731276,
    120.32244534571));
#1413 = CARTESIAN_POINT('',(242.73205080756,88.732050807569,
    120.23205080756));
#1414 = PCURVE('',#675,#1415);
#1415 = DEFINITIONAL_REPRESENTATION('',(#1416),#1426);
#1416 = B_SPLINE_CURVE_WITH_KNOTS('',8,(#1417,#1418,#1419,#1420,#1421,
    #1422,#1423,#1424,#1425),.UNSPECIFIED.,.F.,.F.,(9,9),(0.,1.),
  .PIECEWISE_BEZIER_KNOTS.);
#1417 = CARTESIAN_POINT('',(101.75436293052,0.93146000818));
#1418 = CARTESIAN_POINT('',(102.0177857499,0.93146000818));
#1419 = CARTESIAN_POINT('',(102.28938567638,0.931062872092));
#1420 = CARTESIAN_POINT('',(102.56709401911,0.930314544267));
#1421 = CARTESIAN_POINT('',(102.84928448773,0.929245628481));
#1422 = CARTESIAN_POINT('',(103.13460427204,0.927881970217));
#1423 = CARTESIAN_POINT('',(103.42198936324,0.926243156673));
#1424 = CARTESIAN_POINT('',(103.71063093555,0.924343936803));
#1425 = CARTESIAN_POINT('',(104.,0.922191685894));
#1426 = ( GEOMETRIC_REPRESENTATION_CONTEXT(2) 
PARAMETRIC_REPRESENTATION_CONTEXT() REPRESENTATION_CONTEXT('2D SPACE',''
  ) );
#1427 = PCURVE('',#892,#1428);
#1428 = DEFINITIONAL_REPRESENTATION('',(#1429),#1439);
#1429 = B_SPLINE_CURVE_WITH_KNOTS('',8,(#1430,#1431,#1432,#1433,#1434,
    #1435,#1436,#1437,#1438),.UNSPECIFIED.,.F.,.F.,(9,9),(0.,1.),
  .PIECEWISE_BEZIER_KNOTS.);
#1430 = CARTESIAN_POINT('',(0.785398163397,0.));
#1431 = CARTESIAN_POINT('',(0.785398163397,-8.294664549065E-02));
#1432 = CARTESIAN_POINT('',(0.785398163397,-0.16314839748));
#1433 = CARTESIAN_POINT('',(0.785398163397,-0.241325453709));
#1434 = CARTESIAN_POINT('',(0.785398163397,-0.317905462556));
#1435 = CARTESIAN_POINT('',(0.785398163397,-0.393265688636));
#1436 = CARTESIAN_POINT('',(0.785398163397,-0.467738550236));
#1437 = CARTESIAN_POINT('',(0.785398163397,-0.541672877339));
#1438 = CARTESIAN_POINT('',(0.785398163397,-0.61547970867));
#1439 = ( GEOMETRIC_REPRESENTATION_CONTEXT(2) 
PARAMETRIC_REPRESENTATION_CONTEXT() REPRESENTATION_CONTEXT('2D SPACE',''
  ) );
#1440 = ORIENTED_EDGE('',*,*,#1243,.T.);
#1441 = ORIENTED_EDGE('',*,*,#1357,.F.);
#1442 = ADVANCED_FACE('',(#1443),#892,.T.);
#1443 = FACE_BOUND('',#1444,.T.);
#1444 = EDGE_LOOP('',(#1445,#1446,#1447,#1448));
#1445 = ORIENTED_EDGE('',*,*,#866,.T.);
#1446 = ORIENTED_EDGE('',*,*,#1173,.T.);
#1447 = ORIENTED_EDGE('',*,*,#1219,.F.);
#1448 = ORIENTED_EDGE('',*,*,#1402,.T.);
#1449 = ADVANCED_FACE('',(#1450),#990,.F.);
#1450 = FACE_BOUND('',#1451,.T.);
#1451 = EDGE_LOOP('',(#1452,#1453,#1476,#1503));
#1452 = ORIENTED_EDGE('',*,*,#969,.T.);
#1453 = ORIENTED_EDGE('',*,*,#1454,.T.);
#1454 = EDGE_CURVE('',#970,#1455,#1457,.T.);
#1455 = VERTEX_POINT('',#1456);
#1456 = CARTESIAN_POINT('',(35.8,40.,118.49));
#1457 = SEAM_CURVE('',#1458,(#1462,#1469),.PCURVE_S1.);
#1458 = LINE('',#1459,#1460);
#1459 = CARTESIAN_POINT('',(35.8,40.,111.99));
#1460 = VECTOR('',#1461,1.);
#1461 = DIRECTION('',(0.,0.,1.));
#1462 = PCURVE('',#990,#1463);
#1463 = DEFINITIONAL_REPRESENTATION('',(#1464),#1468);
#1464 = LINE('',#1465,#1466);
#1465 = CARTESIAN_POINT('',(-6.28318530718,0.));
#1466 = VECTOR('',#1467,1.);
#1467 = DIRECTION('',(-0.,-1.));
#1468 = ( GEOMETRIC_REPRESENTATION_CONTEXT(2) 
PARAMETRIC_REPRESENTATION_CONTEXT() REPRESENTATION_CONTEXT('2D SPACE',''
  ) );
#1469 = PCURVE('',#990,#1470);
#1470 = DEFINITIONAL_REPRESENTATION('',(#1471),#1475);
#1471 = LINE('',#1472,#1473);
#1472 = CARTESIAN_POINT('',(-0.,0.));
#1473 = VECTOR('',#1474,1.);
#1474 = DIRECTION('',(-0.,-1.));
#1475 = ( GEOMETRIC_REPRESENTATION_CONTEXT(2) 
PARAMETRIC_REPRESENTATION_CONTEXT() REPRESENTATION_CONTEXT('2D SPACE',''
  ) );
#1476 = ORIENTED_EDGE('',*,*,#1477,.T.);
#1477 = EDGE_CURVE('',#1455,#1455,#1478,.T.);
#1478 = SURFACE_CURVE('',#1479,(#1484,#1491),.PCURVE_S1.);
#1479 = CIRCLE('',#1480,0.8);
#1480 = AXIS2_PLACEMENT_3D('',#1481,#1482,#1483);
#1481 = CARTESIAN_POINT('',(35.,40.,118.49));
#1482 = DIRECTION('',(0.,0.,1.));
#1483 = DIRECTION('',(1.,0.,0.));
#1484 = PCURVE('',#990,#1485);
#1485 = DEFINITIONAL_REPRESENTATION('',(#1486),#1490);
#1486 = LINE('',#1487,#1488);
#1487 = CARTESIAN_POINT('',(-0.,-6.5));
#1488 = VECTOR('',#1489,1.);
#1489 = DIRECTION('',(-1.,0.));
#1490 = ( GEOMETRIC_REPRESENTATION_CONTEXT(2) 
PARAMETRIC_REPRESENTATION_CONTEXT() REPRESENTATION_CONTEXT('2D SPACE',''
  ) );
#1491 = PCURVE('',#1492,#1497);
#1492 = PLANE('',#1493);
#1493 = AXIS2_PLACEMENT_3D('',#1494,#1495,#1496);
#1494 = CARTESIAN_POINT('',(35.,40.,118.49));
#1495 = DIRECTION('',(0.,0.,1.));
#1496 = DIRECTION('',(1.,0.,-0.));
#1497 = DEFINITIONAL_REPRESENTATION('',(#1498),#1502);
#1498 = CIRCLE('',#1499,0.8);
#1499 = AXIS2_PLACEMENT_2D('',#1500,#1501);
#1500 = CARTESIAN_POINT('',(0.,0.));
#1501 = DIRECTION('',(1.,0.));
#1502 = ( GEOMETRIC_REPRESENTATION_CONTEXT(2) 
PARAMETRIC_REPRESENTATION_CONTEXT() REPRESENTATION_CONTEXT('2D SPACE',''
  ) );
#1503 = ORIENTED_EDGE('',*,*,#1454,.F.);
#1504 = ADVANCED_FACE('',(#1505),#1025,.F.);
#1505 = FACE_BOUND('',#1506,.T.);
#1506 = EDGE_LOOP('',(#1507,#1508,#1531,#1558));
#1507 = ORIENTED_EDGE('',*,*,#1004,.T.);
#1508 = ORIENTED_EDGE('',*,*,#1509,.T.);
#1509 = EDGE_CURVE('',#1005,#1510,#1512,.T.);
#1510 = VERTEX_POINT('',#1511);
#1511 = CARTESIAN_POINT('',(90.8,40.,118.49));
#1512 = SEAM_CURVE('',#1513,(#1517,#1524),.PCURVE_S1.);
#1513 = LINE('',#1514,#1515);
#1514 = CARTESIAN_POINT('',(90.8,40.,111.99));
#1515 = VECTOR('',#1516,1.);
#1516 = DIRECTION('',(0.,0.,1.));
#1517 = PCURVE('',#1025,#1518);
#1518 = DEFINITIONAL_REPRESENTATION('',(#1519),#1523);
#1519 = LINE('',#1520,#1521);
#1520 = CARTESIAN_POINT('',(-6.28318530718,0.));
#1521 = VECTOR('',#1522,1.);
#1522 = DIRECTION('',(-0.,-1.));
#1523 = ( GEOMETRIC_REPRESENTATION_CONTEXT(2) 
PARAMETRIC_REPRESENTATION_CONTEXT() REPRESENTATION_CONTEXT('2D SPACE',''
  ) );
#1524 = PCURVE('',#1025,#1525);
#1525 = DEFINITIONAL_REPRESENTATION('',(#1526),#1530);
#1526 = LINE('',#1527,#1528);
#1527 = CARTESIAN_POINT('',(-0.,0.));
#1528 = VECTOR('',#1529,1.);
#1529 = DIRECTION('',(-0.,-1.));
#1530 = ( GEOMETRIC_REPRESENTATION_CONTEXT(2) 
PARAMETRIC_REPRESENTATION_CONTEXT() REPRESENTATION_CONTEXT('2D SPACE',''
  ) );
#1531 = ORIENTED_EDGE('',*,*,#1532,.T.);
#1532 = EDGE_CURVE('',#1510,#1510,#1533,.T.);
#1533 = SURFACE_CURVE('',#1534,(#1539,#1546),.PCURVE_S1.);
#1534 = CIRCLE('',#1535,0.8);
#1535 = AXIS2_PLACEMENT_3D('',#1536,#1537,#1538);
#1536 = CARTESIAN_POINT('',(90.,40.,118.49));
#1537 = DIRECTION('',(0.,0.,1.));
#1538 = DIRECTION('',(1.,0.,0.));
#1539 = PCURVE('',#1025,#1540);
#1540 = DEFINITIONAL_REPRESENTATION('',(#1541),#1545);
#1541 = LINE('',#1542,#1543);
#1542 = CARTESIAN_POINT('',(-0.,-6.5));
#1543 = VECTOR('',#1544,1.);
#1544 = DIRECTION('',(-1.,0.));
#1545 = ( GEOMETRIC_REPRESENTATION_CONTEXT(2) 
PARAMETRIC_REPRESENTATION_CONTEXT() REPRESENTATION_CONTEXT('2D SPACE',''
  ) );
#1546 = PCURVE('',#1547,#1552);
#1547 = PLANE('',#1548);
#1548 = AXIS2_PLACEMENT_3D('',#1549,#1550,#1551);
#1549 = CARTESIAN_POINT('',(90.,40.,118.49));
#1550 = DIRECTION('',(0.,0.,1.));
#1551 = DIRECTION('',(1.,0.,-0.));
#1552 = DEFINITIONAL_REPRESENTATION('',(#1553),#1557);
#1553 = CIRCLE('',#1554,0.8);
#1554 = AXIS2_PLACEMENT_2D('',#1555,#1556);
#1555 = CARTESIAN_POINT('',(0.,0.));
#1556 = DIRECTION('',(1.,0.));
#1557 = ( GEOMETRIC_REPRESENTATION_CONTEXT(2) 
PARAMETRIC_REPRESENTATION_CONTEXT() REPRESENTATION_CONTEXT('2D SPACE',''
  ) );
#1558 = ORIENTED_EDGE('',*,*,#1509,.F.);
#1559 = ADVANCED_FACE('',(#1560),#1060,.F.);
#1560 = FACE_BOUND('',#1561,.T.);
#1561 = EDGE_LOOP('',(#1562,#1563,#1586,#1613));
#1562 = ORIENTED_EDGE('',*,*,#1039,.T.);
#1563 = ORIENTED_EDGE('',*,*,#1564,.T.);
#1564 = EDGE_CURVE('',#1040,#1565,#1567,.T.);
#1565 = VERTEX_POINT('',#1566);
#1566 = CARTESIAN_POINT('',(145.8,40.,118.49));
#1567 = SEAM_CURVE('',#1568,(#1572,#1579),.PCURVE_S1.);
#1568 = LINE('',#1569,#1570);
#1569 = CARTESIAN_POINT('',(145.8,40.,111.99));
#1570 = VECTOR('',#1571,1.);
#1571 = DIRECTION('',(0.,0.,1.));
#1572 = PCURVE('',#1060,#1573);
#1573 = DEFINITIONAL_REPRESENTATION('',(#1574),#1578);
#1574 = LINE('',#1575,#1576);
#1575 = CARTESIAN_POINT('',(-6.28318530718,0.));
#1576 = VECTOR('',#1577,1.);
#1577 = DIRECTION('',(-0.,-1.));
#1578 = ( GEOMETRIC_REPRESENTATION_CONTEXT(2) 
PARAMETRIC_REPRESENTATION_CONTEXT() REPRESENTATION_CONTEXT('2D SPACE',''
  ) );
#1579 = PCURVE('',#1060,#1580);
#1580 = DEFINITIONAL_REPRESENTATION('',(#1581),#1585);
#1581 = LINE('',#1582,#1583);
#1582 = CARTESIAN_POINT('',(-0.,0.));
#1583 = VECTOR('',#1584,1.);
#1584 = DIRECTION('',(-0.,-1.));
#1585 = ( GEOMETRIC_REPRESENTATION_CONTEXT(2) 
PARAMETRIC_REPRESENTATION_CONTEXT() REPRESENTATION_CONTEXT('2D SPACE',''
  ) );
#1586 = ORIENTED_EDGE('',*,*,#1587,.T.);
#1587 = EDGE_CURVE('',#1565,#1565,#1588,.T.);
#1588 = SURFACE_CURVE('',#1589,(#1594,#1601),.PCURVE_S1.);
#1589 = CIRCLE('',#1590,0.8);
#1590 = AXIS2_PLACEMENT_3D('',#1591,#1592,#1593);
#1591 = CARTESIAN_POINT('',(145.,40.,118.49));
#1592 = DIRECTION('',(0.,0.,1.));
#1593 = DIRECTION('',(1.,0.,0.));
#1594 = PCURVE('',#1060,#1595);
#1595 = DEFINITIONAL_REPRESENTATION('',(#1596),#1600);
#1596 = LINE('',#1597,#1598);
#1597 = CARTESIAN_POINT('',(-0.,-6.5));
#1598 = VECTOR('',#1599,1.);
#1599 = DIRECTION('',(-1.,0.));
#1600 = ( GEOMETRIC_REPRESENTATION_CONTEXT(2) 
PARAMETRIC_REPRESENTATION_CONTEXT() REPRESENTATION_CONTEXT('2D SPACE',''
  ) );
#1601 = PCURVE('',#1602,#1607);
#1602 = PLANE('',#1603);
#1603 = AXIS2_PLACEMENT_3D('',#1604,#1605,#1606);
#1604 = CARTESIAN_POINT('',(145.,40.,118.49));
#1605 = DIRECTION('',(0.,0.,1.));
#1606 = DIRECTION('',(1.,0.,-0.));
#1607 = DEFINITIONAL_REPRESENTATION('',(#1608),#1612);
#1608 = CIRCLE('',#1609,0.8);
#1609 = AXIS2_PLACEMENT_2D('',#1610,#1611);
#1610 = CARTESIAN_POINT('',(0.,0.));
#1611 = DIRECTION('',(1.,0.));
#1612 = ( GEOMETRIC_REPRESENTATION_CONTEXT(2) 
PARAMETRIC_REPRESENTATION_CONTEXT() REPRESENTATION_CONTEXT('2D SPACE',''
  ) );
#1613 = ORIENTED_EDGE('',*,*,#1564,.F.);
#1614 = ADVANCED_FACE('',(#1615),#1095,.F.);
#1615 = FACE_BOUND('',#1616,.T.);
#1616 = EDGE_LOOP('',(#1617,#1618,#1641,#1668));
#1617 = ORIENTED_EDGE('',*,*,#1074,.T.);
#1618 = ORIENTED_EDGE('',*,*,#1619,.T.);
#1619 = EDGE_CURVE('',#1075,#1620,#1622,.T.);
#1620 = VERTEX_POINT('',#1621);
#1621 = CARTESIAN_POINT('',(190.8,40.,118.49));
#1622 = SEAM_CURVE('',#1623,(#1627,#1634),.PCURVE_S1.);
#1623 = LINE('',#1624,#1625);
#1624 = CARTESIAN_POINT('',(190.8,40.,111.99));
#1625 = VECTOR('',#1626,1.);
#1626 = DIRECTION('',(0.,0.,1.));
#1627 = PCURVE('',#1095,#1628);
#1628 = DEFINITIONAL_REPRESENTATION('',(#1629),#1633);
#1629 = LINE('',#1630,#1631);
#1630 = CARTESIAN_POINT('',(-6.28318530718,0.));
#1631 = VECTOR('',#1632,1.);
#1632 = DIRECTION('',(-0.,-1.));
#1633 = ( GEOMETRIC_REPRESENTATION_CONTEXT(2) 
PARAMETRIC_REPRESENTATION_CONTEXT() REPRESENTATION_CONTEXT('2D SPACE',''
  ) );
#1634 = PCURVE('',#1095,#1635);
#1635 = DEFINITIONAL_REPRESENTATION('',(#1636),#1640);
#1636 = LINE('',#1637,#1638);
#1637 = CARTESIAN_POINT('',(-0.,0.));
#1638 = VECTOR('',#1639,1.);
#1639 = DIRECTION('',(-0.,-1.));
#1640 = ( GEOMETRIC_REPRESENTATION_CONTEXT(2) 
PARAMETRIC_REPRESENTATION_CONTEXT() REPRESENTATION_CONTEXT('2D SPACE',''
  ) );
#1641 = ORIENTED_EDGE('',*,*,#1642,.T.);
#1642 = EDGE_CURVE('',#1620,#1620,#1643,.T.);
#1643 = SURFACE_CURVE('',#1644,(#1649,#1656),.PCURVE_S1.);
#1644 = CIRCLE('',#1645,0.8);
#1645 = AXIS2_PLACEMENT_3D('',#1646,#1647,#1648);
#1646 = CARTESIAN_POINT('',(190.,40.,118.49));
#1647 = DIRECTION('',(0.,0.,1.));
#1648 = DIRECTION('',(1.,0.,0.));
#1649 = PCURVE('',#1095,#1650);
#1650 = DEFINITIONAL_REPRESENTATION('',(#1651),#1655);
#1651 = LINE('',#1652,#1653);
#1652 = CARTESIAN_POINT('',(-0.,-6.5));
#1653 = VECTOR('',#1654,1.);
#1654 = DIRECTION('',(-1.,0.));
#1655 = ( GEOMETRIC_REPRESENTATION_CONTEXT(2) 
PARAMETRIC_REPRESENTATION_CONTEXT() REPRESENTATION_CONTEXT('2D SPACE',''
  ) );
#1656 = PCURVE('',#1657,#1662);
#1657 = PLANE('',#1658);
#1658 = AXIS2_PLACEMENT_3D('',#1659,#1660,#1661);
#1659 = CARTESIAN_POINT('',(190.,40.,118.49));
#1660 = DIRECTION('',(0.,0.,1.));
#1661 = DIRECTION('',(1.,0.,-0.));
#1662 = DEFINITIONAL_REPRESENTATION('',(#1663),#1667);
#1663 = CIRCLE('',#1664,0.8);
#1664 = AXIS2_PLACEMENT_2D('',#1665,#1666);
#1665 = CARTESIAN_POINT('',(0.,0.));
#1666 = DIRECTION('',(1.,0.));
#1667 = ( GEOMETRIC_REPRESENTATION_CONTEXT(2) 
PARAMETRIC_REPRESENTATION_CONTEXT() REPRESENTATION_CONTEXT('2D SPACE',''
  ) );
#1668 = ORIENTED_EDGE('',*,*,#1619,.F.);
#1669 = ADVANCED_FACE('',(#1670),#1492,.F.);
#1670 = FACE_BOUND('',#1671,.F.);
#1671 = EDGE_LOOP('',(#1672));
#1672 = ORIENTED_EDGE('',*,*,#1477,.T.);
#1673 = ADVANCED_FACE('',(#1674),#1547,.F.);
#1674 = FACE_BOUND('',#1675,.F.);
#1675 = EDGE_LOOP('',(#1676));
#1676 = ORIENTED_EDGE('',*,*,#1532,.T.);
#1677 = ADVANCED_FACE('',(#1678),#1602,.F.);
#1678 = FACE_BOUND('',#1679,.F.);
#1679 = EDGE_LOOP('',(#1680));
#1680 = ORIENTED_EDGE('',*,*,#1587,.T.);
#1681 = ADVANCED_FACE('',(#1682),#1657,.F.);
#1682 = FACE_BOUND('',#1683,.F.);
#1683 = EDGE_LOOP('',(#1684));
#1684 = ORIENTED_EDGE('',*,*,#1642,.T.);
#1685 = ( GEOMETRIC_REPRESENTATION_CONTEXT(3) 
GLOBAL_UNCERTAINTY_ASSIGNED_CONTEXT((#1689)) 
GLOBAL_UNIT_ASSIGNED_CONTEXT((#1686,#1687,#1688)) REPRESENTATION_CONTEXT
('Context #1','3D Context with UNIT and UNCERTAINTY') );
#1686 = ( LENGTH_UNIT() NAMED_UNIT(*) SI_UNIT(.MILLI.,.METRE.) );
#1687 = ( NAMED_UNIT(*) PLANE_ANGLE_UNIT() SI_UNIT($,.RADIAN.) );
#1688 = ( NAMED_UNIT(*) SI_UNIT($,.STERADIAN.) SOLID_ANGLE_UNIT() );
#1689 = UNCERTAINTY_MEASURE_WITH_UNIT(LENGTH_MEASURE(2.E-06),#1686,
  'distance_accuracy_value','confusion accuracy');
#1690 = PRODUCT_RELATED_PRODUCT_CATEGORY('part',$,(#7));
ENDSEC;
END-ISO-10303-21;
